SplineFontDB: 3.0
FontName: Oswald-Light
FullName: Oswald Light
FamilyName: Oswald
Weight: Light
Copyright: Copyright (c) 2011 by vernon adams. All rights reserved.
UComments: "autokern +AD0A 223 / 33" 
Version: 2.0
FONDName: Oswald
ItalicAngle: 0
UnderlinePosition: -100
UnderlineWidth: 50
Ascent: 1638
Descent: 410
UFOAscent: 1721
UFODescent: -385
LayerCount: 2
Layer: 0 0 "Back"  1
Layer: 1 0 "Fore"  0
NeedsXUIDChange: 1
FSType: 0
OS2Version: 0
OS2_WeightWidthSlopeOnly: 0
OS2_UseTypoMetrics: 0
CreationTime: 1331556372
ModificationTime: 1337201319
PfmFamily: 33
TTFWeight: 300
TTFWidth: 5
LineGap: 0
VLineGap: 0
OS2TypoAscent: 2244
OS2TypoAOffset: 0
OS2TypoDescent: -646
OS2TypoDOffset: 0
OS2TypoLinegap: 0
OS2WinAscent: 2244
OS2WinAOffset: 0
OS2WinDescent: 646
OS2WinDOffset: 0
HheadAscent: 2244
HheadAOffset: 0
HheadDescent: -646
HheadDOffset: 0
OS2SubXSize: 25229
OS2SubYSize: 23417
OS2SubXOff: 0
OS2SubYOff: 5050
OS2SupXSize: 25229
OS2SupYSize: 23417
OS2SupXOff: 0
OS2SupYOff: 17189
OS2StrikeYSize: 209
OS2StrikeYPos: 1049
OS2Vendor: 'newt'
Lookup: 4 0 1 "'liga' Standard Ligatures in Latin lookup 0"  {"'liga' Standard Ligatures in Latin lookup 0-1"  } ['liga' ('DFLT' <'dflt' > 'latn' <'dflt' > ) ]
Lookup: 258 0 0 "'kern' Horizontal Kerning lookup 0"  {"'kern' Horizontal Kerning lookup 0 per glyph data 0"  "'kern' Horizontal Kerning lookup 0 kerning class 1"  } ['kern' ('DFLT' <'dflt' > 'latn' <'dflt' > ) ]
MarkAttachClasses: 1
DEI: 91125
KernClass2: 28 21 "'kern' Horizontal Kerning lookup 0 kerning class 1" 
 81 A Aacute Abreve Acircumflex Adieresis Agrave Amacron Aogonek Aring Atilde uni0202
 1 B
 75 D Eth O Oacute Ocircumflex Odieresis Ograve Oslash Otilde Q uni020C uni020E
 1 F
 1 K
 1 L
 1 P
 44 R Racute Rcaron Rcommaaccent uni0210 uni0212
 22 T Tcommaaccent uni021A
 1 V
 1 W
 18 Y Yacute Ydieresis
 1 a
 69 b o oacute ocircumflex odieresis ograve oslash otilde p thorn uni020F
 1 c
 1 d
 1 e
 1 f
 1 g
 24 h hbar m n nacute ntilde
 27 k kcommaaccent kgreenlandic

StartChar: A
Encoding: 33 65 0
Width: 972
VWidth: 0
Flags: HW
PickledData: "(dp1
S'com.typemytype.robofont.layerData'
p2
(dp3
s."
LayerCount: 2
Fore
SplineSet
306 549 m 1
 666 549 l 1
 485 1563 l 1
 306 549 l 1
200 0 m 1
 47 0 l 1
 387 1721 l 1
 585 1721 l 1
 925 0 l 1
 771 0 l 1
 685 448 l 1
 288 448 l 1
 200 0 l 1
EndSplineSet
EndChar

StartChar: AE
Encoding: 132 198 1
Width: 1380
VWidth: 0
Flags: HW
LayerCount: 2
Fore
SplineSet
365 549 m 1
 719 549 l 1
 719 1563 l 1
 365 549 l 1
12 0 m 1
 648 1721 l 1
 1320 1721 l 1
 1320 1599 l 1
 872 1599 l 1
 872 947 l 1
 1192 947 l 1
 1192 832 l 1
 872 832 l 1
 872 122 l 1
 1320 122 l 1
 1320 0 l 1
 720 0 l 1
 720 448 l 1
 329 448 l 1
 164 0 l 1
 12 0 l 1
EndSplineSet
EndChar

StartChar: B
Encoding: 34 66 11
Width: 1012
VWidth: 0
Flags: HW
PickledData: "(dp1
S'com.typemytype.robofont.layerData'
p2
(dp3
s."
LayerCount: 2
Fore
SplineSet
298 982 m 1
 542 982 l 2
 696 982 742 1127 742 1281 c 0
 742 1458 687 1605 496 1605 c 2
 298 1605 l 1
 298 982 l 1
298 116 m 1
 570 116 l 2
 749 116 788 301 788 513 c 0
 788 700 752 865 570 865 c 2
 298 865 l 1
 298 116 l 1
146 0 m 1
 146 1721 l 1
 516 1721 l 2
 823 1721 905 1500 905 1284 c 0
 905 1153 842 989 719 933 c 1
 890 864 940 659 940 513 c 0
 940 240 882 0 546 0 c 2
 146 0 l 1
EndSplineSet
EndChar

StartChar: C
Encoding: 35 67 12
Width: 1032
VWidth: 0
Flags: HW
PickledData: "(dp1
S'com.typemytype.robofont.layerData'
p2
(dp3
s."
LayerCount: 2
Fore
SplineSet
114 499 m 2
 114 1220 l 2
 114 1511 208 1745 542 1745 c 0
 852 1745 946 1511 946 1220 c 2
 946 1150 l 1
 801 1150 l 1
 801 1254 l 2
 801 1464 742 1623 542 1623 c 0
 318 1623 266 1464 266 1254 c 2
 266 465 l 2
 266 255 318 95 542 95 c 0
 742 95 801 255 801 465 c 2
 801 583 l 1
 946 583 l 1
 946 499 l 2
 946 210 860 -27 542 -27 c 0
 200 -27 114 210 114 499 c 2
EndSplineSet
EndChar

StartChar: Cdotaccent
Encoding: 200 266 17
Width: 1074
VWidth: 0
Flags: HW
PickledData: "(dp1
S'com.typemytype.robofont.layerData'
p2
(dp3
s."
LayerCount: 2
Fore
SplineSet
447 1847 m 1
 447 2026 l 1
 631 2026 l 1
 631 1847 l 1
 447 1847 l 1
EndSplineSet
Refer: 12 67 N 1 0 0 1 0 0 2
EndChar

StartChar: D
Encoding: 36 68 18
Width: 1086
VWidth: 0
Flags: HW
PickledData: "(dp1
S'com.typemytype.robofont.layerData'
p2
(dp3
s."
LayerCount: 2
Fore
SplineSet
146 0 m 1
 146 1721 l 1
 533 1721 l 2
 867 1721 972 1493 972 1208 c 2
 972 508 l 2
 972 230 875 0 533 0 c 2
 146 0 l 1
298 122 m 1
 533 122 l 2
 757 122 820 282 820 474 c 2
 820 1242 l 2
 820 1440 757 1599 533 1599 c 2
 298 1599 l 1
 298 122 l 1
EndSplineSet
EndChar

StartChar: E
Encoding: 37 69 21
Width: 795
VWidth: 0
Flags: HW
PickledData: "(dp1
S'com.typemytype.robofont.layerData'
p2
(dp3
s."
LayerCount: 2
Fore
SplineSet
146 0 m 1
 146 1721 l 1
 746 1721 l 1
 746 1599 l 1
 298 1599 l 1
 298 947 l 1
 618 947 l 1
 618 832 l 1
 298 832 l 1
 298 122 l 1
 746 122 l 1
 746 0 l 1
 146 0 l 1
EndSplineSet
EndChar

StartChar: Eth
Encoding: 142 208 29
Width: 1128
VWidth: 0
Flags: HW
LayerCount: 2
Fore
SplineSet
335 122 m 1
 570 122 l 2
 794 122 857 282 857 474 c 2
 857 1242 l 2
 857 1440 794 1599 570 1599 c 2
 335 1599 l 1
 335 924 l 1
 535 924 l 1
 535 830 l 1
 335 830 l 1
 335 122 l 1
183 0 m 1
 183 830 l 1
 43 830 l 1
 43 924 l 1
 183 924 l 1
 183 1721 l 1
 570 1721 l 2
 904 1721 1009 1493 1009 1208 c 2
 1009 508 l 2
 1009 230 912 0 570 0 c 2
 183 0 l 1
EndSplineSet
EndChar

StartChar: Euro
Encoding: 373 8364 30
Width: 1096
VWidth: 0
Flags: HW
LayerCount: 2
Fore
SplineSet
163 499 m 2
 163 695 l 1
 41 695 l 1
 41 784 l 1
 163 784 l 1
 163 916 l 1
 41 916 l 1
 41 1005 l 1
 163 1005 l 1
 163 1220 l 2
 163 1511 266 1745 600 1745 c 0
 910 1745 1004 1511 1004 1220 c 2
 1004 1150 l 1
 859 1150 l 1
 859 1254 l 2
 859 1464 800 1623 600 1623 c 0
 376 1623 315 1464 315 1254 c 2
 315 1005 l 1
 583 1005 l 1
 583 916 l 1
 315 916 l 1
 315 784 l 1
 583 784 l 1
 583 695 l 1
 315 695 l 1
 315 465 l 2
 315 255 376 95 600 95 c 0
 800 95 859 255 859 465 c 2
 859 583 l 1
 1004 583 l 1
 1004 499 l 2
 1004 210 918 -27 600 -27 c 0
 258 -27 163 210 163 499 c 2
EndSplineSet
EndChar

StartChar: F
Encoding: 38 70 31
Width: 736
VWidth: 0
Flags: HW
PickledData: "(dp1
S'com.typemytype.robofont.layerData'
p2
(dp3
s."
LayerCount: 2
Fore
SplineSet
146 0 m 1
 146 1721 l 1
 751 1721 l 1
 751 1599 l 1
 298 1599 l 1
 298 947 l 1
 654 947 l 1
 654 832 l 1
 298 832 l 1
 298 0 l 1
 146 0 l 1
EndSplineSet
EndChar

StartChar: G
Encoding: 39 71 32
Width: 1088
VWidth: 0
Flags: HW
PickledData: "(dp1
S'com.typemytype.robofont.layerData'
p2
(dp3
s."
LayerCount: 2
Fore
SplineSet
114 481 m 2
 114 1211 l 2
 114 1486 201 1745 567 1745 c 0
 912 1745 962 1477 964 1171 c 1
 964 1159 l 1
 812 1159 l 1
 812 1172 l 2
 812 1396 817 1623 565 1623 c 0
 333 1623 266 1453 266 1275 c 2
 266 415 l 2
 266 255 314 95 553 95 c 0
 775 95 823 264 823 415 c 2
 823 706 l 1
 612 706 l 1
 612 821 l 1
 975 821 l 1
 975 0 l 1
 908 0 l 1
 863 168 l 1
 817 48 689 -27 551 -27 c 0
 127 -27 114 321 114 481 c 2
EndSplineSet
EndChar

StartChar: Gdotaccent
Encoding: 216 288 35
Width: 1117
VWidth: 0
Flags: HW
PickledData: "(dp1
S'com.typemytype.robofont.layerData'
p2
(dp3
s."
LayerCount: 2
Fore
SplineSet
463 1847 m 1
 463 2026 l 1
 647 2026 l 1
 647 1847 l 1
 463 1847 l 1
EndSplineSet
Refer: 32 71 N 1 0 0 1 0 0 2
EndChar

StartChar: H
Encoding: 40 72 36
Width: 1126
VWidth: 0
Flags: HW
LayerCount: 2
Fore
SplineSet
146 0 m 1
 146 1721 l 1
 298 1721 l 1
 298 942 l 1
 828 942 l 1
 828 1721 l 1
 980 1721 l 1
 980 0 l 1
 828 0 l 1
 828 836 l 1
 298 836 l 1
 298 0 l 1
 146 0 l 1
EndSplineSet
EndChar

StartChar: Hbar
Encoding: 222 294 37
Width: 1118
VWidth: 0
Flags: HW
LayerCount: 2
Fore
SplineSet
292 942 m 1
 822 942 l 1
 822 1331 l 1
 292 1331 l 1
 292 942 l 1
140 0 m 1
 140 1331 l 1
 100 1331 l 1
 100 1425 l 1
 140 1425 l 1
 140 1721 l 1
 292 1721 l 1
 292 1425 l 1
 822 1425 l 1
 822 1721 l 1
 974 1721 l 1
 974 1425 l 1
 1014 1425 l 1
 1014 1331 l 1
 974 1331 l 1
 974 0 l 1
 822 0 l 1
 822 836 l 1
 292 836 l 1
 292 0 l 1
 140 0 l 1
EndSplineSet
EndChar

StartChar: I
Encoding: 41 73 39
Width: 444
VWidth: 0
Flags: HW
LayerCount: 2
Fore
SplineSet
145 0 m 1
 145 1721 l 1
 297 1721 l 1
 297 0 l 1
 145 0 l 1
EndSplineSet
EndChar

StartChar: Idotaccent
Encoding: 232 304 45
Width: 444
VWidth: 0
Flags: HW
LayerCount: 2
Fore
SplineSet
129 1847 m 1
 129 2026 l 1
 313 2026 l 1
 313 1847 l 1
 129 1847 l 1
EndSplineSet
Refer: 39 73 N 1 0 0 1 0 0 2
EndChar

StartChar: J
Encoding: 42 74 50
Width: 566
VWidth: 0
Flags: HW
PickledData: "(dp1
S'com.typemytype.robofont.layerData'
p2
(dp3
s."
LayerCount: 2
Fore
SplineSet
12 0 m 1
 12 115 l 1
 247 115 268 125 268 410 c 2
 268 1721 l 1
 420 1721 l 1
 420 410 l 2
 420 128 390 0 91 0 c 2
 12 0 l 1
EndSplineSet
EndChar

StartChar: K
Encoding: 43 75 52
Width: 981
VWidth: 0
Flags: HW
PickledData: "(dp1
S'com.typemytype.robofont.layerData'
p2
(dp3
s."
LayerCount: 2
Fore
SplineSet
146 0 m 1
 146 1721 l 1
 298 1721 l 1
 298 816 l 1
 757 1721 l 1
 914 1721 l 1
 558 1011 l 1
 995 0 l 1
 834 0 l 1
 466 909 l 1
 298 607 l 1
 298 0 l 1
 146 0 l 1
EndSplineSet
EndChar

StartChar: L
Encoding: 44 76 54
Width: 772
VWidth: 0
Flags: HW
PickledData: "(dp1
S'com.typemytype.robofont.layerData'
p2
(dp3
s."
LayerCount: 2
Fore
SplineSet
146 0 m 1
 146 1721 l 1
 298 1721 l 1
 298 122 l 1
 779 122 l 1
 779 0 l 1
 146 0 l 1
EndSplineSet
EndChar

StartChar: Lslash
Encoding: 246 321 59
Width: 827
VWidth: 0
Flags: HW
LayerCount: 2
Fore
SplineSet
183 0 m 1
 183 859 l 1
 43 806 l 1
 43 921 l 1
 183 974 l 1
 183 1721 l 1
 335 1721 l 1
 335 1031 l 1
 586 1127 l 1
 586 1012 l 1
 335 916 l 1
 335 122 l 1
 816 122 l 1
 816 0 l 1
 183 0 l 1
EndSplineSet
EndChar

StartChar: M
Encoding: 45 77 60
Width: 1330
VWidth: 0
Flags: HW
LayerCount: 2
Fore
SplineSet
146 0 m 1
 146 1721 l 1
 333 1721 l 1
 665 235 l 1
 801 885 869 1071 997 1721 c 1
 1184 1721 l 1
 1184 0 l 1
 1049 0 l 1
 1049 1377 l 1
 731 0 l 1
 599 0 l 1
 281 1376 l 1
 281 0 l 1
 146 0 l 1
EndSplineSet
EndChar

StartChar: N
Encoding: 46 78 61
Width: 1083
VWidth: 0
Flags: HW
LayerCount: 2
Fore
SplineSet
146 0 m 1
 146 1721 l 1
 263 1721 l 1
 808 358 l 1
 808 1721 l 1
 937 1721 l 1
 937 0 l 1
 823 0 l 1
 277 1334 l 1
 277 0 l 1
 146 0 l 1
EndSplineSet
EndChar

StartChar: O
Encoding: 47 79 66
Width: 1106
VWidth: 0
Flags: HW
PickledData: "(dp1
S'com.typemytype.robofont.layerData'
p2
(dp3
s."
LayerCount: 2
Fore
SplineSet
114 499 m 2
 114 1220 l 2
 114 1511 219 1745 553 1745 c 0
 887 1745 992 1511 992 1220 c 2
 992 499 l 2
 992 210 895 -27 553 -27 c 0
 211 -27 114 210 114 499 c 2
840 465 m 2
 840 1254 l 2
 840 1458 777 1623 553 1623 c 0
 329 1623 266 1458 266 1254 c 2
 266 465 l 2
 266 261 329 95 553 95 c 0
 777 95 840 261 840 465 c 2
EndSplineSet
EndChar

StartChar: OE
Encoding: 260 338 67
Width: 1499
VWidth: 0
Flags: HW
LayerCount: 2
Fore
SplineSet
554 121 m 1
 841 121 l 1
 841 1599 l 1
 554 1599 l 2
 330 1599 267 1446 267 1254 c 2
 267 465 l 2
 267 278 330 123 554 121 c 1
115 499 m 2
 115 1220 l 2
 115 1499 220 1721 554 1721 c 2
 1441 1721 l 1
 1441 1599 l 1
 993 1599 l 1
 993 947 l 1
 1313 947 l 1
 1313 832 l 1
 993 832 l 1
 993 122 l 1
 1441 122 l 1
 1441 0 l 1
 554 0 l 2
 212 0 115 226 115 499 c 2
EndSplineSet
EndChar

StartChar: Oslash
Encoding: 150 216 75
Width: 1106
VWidth: 0
Flags: HW
PickledData: "(dp1
S'com.typemytype.robofont.layerData'
p2
(dp3
s."
LayerCount: 2
Fore
SplineSet
992 499 m 2
 992 210 895 -27 553 -27 c 0
 457 -27 381 -8 320 25 c 1
 263 -152 l 1
 199 -132 l 1
 262 65 l 1
 152 160 114 319 114 499 c 2
 114 1220 l 2
 114 1511 219 1745 553 1745 c 0
 648 1745 724 1726 785 1692 c 1
 842 1870 l 1
 907 1850 l 1
 843 1652 l 1
 952 1557 992 1399 992 1220 c 2
 992 499 l 2
553 95 m 0
 777 95 840 261 840 465 c 2
 840 1254 l 2
 840 1346 827 1430 793 1495 c 1
 363 159 l 1
 407 119 469 95 553 95 c 0
266 1254 m 2
 266 465 l 2
 266 373 279 289 313 224 c 1
 742 1560 l 1
 699 1600 637 1623 553 1623 c 0
 329 1623 266 1458 266 1254 c 2
EndSplineSet
EndChar

StartChar: P
Encoding: 48 80 77
Width: 1004
VWidth: 0
Flags: HW
PickledData: "(dp1
S'com.typemytype.robofont.layerData'
p2
(dp3
s."
LayerCount: 2
Fore
SplineSet
298 887 m 1
 584 886 l 2
 758 885 822 1006 822 1255 c 0
 822 1494 743 1599 584 1599 c 2
 298 1599 l 1
 298 887 l 1
146 0 m 1
 146 1721 l 1
 567 1721 l 2
 874 1721 974 1506 974 1258 c 0
 974 1013 894 765 566 765 c 2
 298 765 l 1
 298 0 l 1
 146 0 l 1
EndSplineSet
EndChar

StartChar: Q
Encoding: 49 81 78
Width: 1113
VWidth: 0
Flags: HW
PickledData: "(dp1
S'com.typemytype.robofont.layerData'
p2
(dp3
s."
LayerCount: 2
Fore
SplineSet
840 465 m 2
 840 1254 l 2
 840 1458 777 1623 553 1623 c 0
 329 1623 266 1458 266 1254 c 2
 266 465 l 2
 266 261 329 95 553 95 c 0
 777 95 840 261 840 465 c 2
114 499 m 2
 114 1220 l 2
 114 1511 219 1745 553 1745 c 0
 887 1745 992 1511 992 1220 c 2
 992 499 l 2
 992 291 942 111 787 25 c 1
 845 -28 911 -86 999 -98 c 1
 999 -212 l 1
 880 -195 784 -115 691 -11 c 1
 650 -21 604 -27 553 -27 c 0
 211 -27 114 210 114 499 c 2
EndSplineSet
EndChar

StartChar: R
Encoding: 50 82 79
Width: 1067
VWidth: 0
Flags: HW
PickledData: "(dp1
S'com.typemytype.robofont.layerData'
p2
(dp3
s."
LayerCount: 2
Fore
SplineSet
298 962 m 1
 604 962 l 2
 786 962 822 1120 822 1281 c 0
 822 1452 782 1599 604 1599 c 2
 298 1599 l 1
 298 962 l 1
146 0 m 1
 146 1721 l 1
 605 1721 l 2
 904 1721 974 1515 974 1276 c 0
 974 1100 923 928 734 859 c 1
 1000 0 l 1
 838 0 l 1
 587 840 l 1
 298 840 l 1
 298 0 l 1
 146 0 l 1
EndSplineSet
EndChar

StartChar: S
Encoding: 51 83 83
Width: 948
VWidth: 0
Flags: HW
PickledData: "(dp1
S'com.typemytype.robofont.layerData'
p2
(dp3
s."
LayerCount: 2
Fore
SplineSet
68 415 m 1
 202 454 l 1
 223 273 305 95 509 95 c 0
 666 95 754 186 754 344 c 0
 754 490 648 615 523 747 c 2
 254 1030 l 2
 153 1137 72 1245 72 1374 c 0
 72 1602 239 1745 468 1745 c 0
 695 1745 832 1613 877 1372 c 2
 880 1356 l 1
 752 1316 l 1
 750 1330 l 1
 725 1491 632 1623 468 1623 c 0
 322 1623 219 1549 219 1394 c 0
 219 1297 277 1210 360 1120 c 2
 613 845 l 2
 748 697 899 555 899 357 c 0
 899 103 723 -27 492 -27 c 0
 240 -27 104 178 68 415 c 1
EndSplineSet
EndChar

StartChar: T
Encoding: 52 84 88
Width: 753
VWidth: 0
Flags: HW
PickledData: "(dp1
S'com.typemytype.robofont.layerData'
p2
(dp3
s."
LayerCount: 2
Fore
SplineSet
299 0 m 1
 299 1599 l 1
 -36 1599 l 1
 -36 1721 l 1
 789 1721 l 1
 789 1599 l 1
 451 1599 l 1
 451 0 l 1
 299 0 l 1
EndSplineSet
EndChar

StartChar: Thorn
Encoding: 156 222 91
Width: 1058
VWidth: 0
Flags: HW
LayerCount: 2
Fore
SplineSet
298 628 m 1
 584 627 l 2
 758 626 822 746 822 996 c 0
 822 1235 743 1340 584 1340 c 2
 298 1340 l 1
 298 628 l 1
146 0 m 1
 146 1721 l 1
 298 1721 l 1
 298 1462 l 1
 567 1462 l 2
 874 1462 974 1247 974 999 c 0
 974 754 894 506 566 506 c 2
 298 506 l 1
 298 0 l 1
 146 0 l 1
EndSplineSet
EndChar

StartChar: U
Encoding: 53 85 92
Width: 1132
VWidth: 0
Flags: HW
PickledData: "(dp1
S'com.typemytype.robofont.layerData'
p2
(dp3
s."
LayerCount: 2
Fore
SplineSet
120 423 m 2
 120 1721 l 1
 272 1721 l 1
 272 388 l 2
 272 199 345 95 565 95 c 0
 773 95 843 201 843 388 c 2
 843 1721 l 1
 994 1721 l 1
 994 423 l 2
 994 181 904 -27 565 -27 c 0
 212 -27 120 181 120 423 c 2
EndSplineSet
EndChar

StartChar: V
Encoding: 54 86 103
Width: 949
VWidth: 0
Flags: HW
PickledData: "(dp1
S'com.typemytype.robofont.layerData'
p2
(dp3
s."
LayerCount: 2
Fore
SplineSet
382 0 m 1
 12 1721 l 1
 176 1721 l 1
 481 180 l 1
 773 1721 l 1
 937 1721 l 1
 581 0 l 1
 382 0 l 1
EndSplineSet
EndChar

StartChar: W
Encoding: 55 87 104
Width: 1416
VWidth: 0
Flags: HW
PickledData: "(dp1
S'com.typemytype.robofont.layerData'
p2
(dp3
s."
LayerCount: 2
Fore
SplineSet
311 0 m 1
 23 1721 l 1
 165 1721 l 1
 400 249 l 1
 622 1721 l 1
 815 1721 l 1
 1018 249 l 1
 1252 1721 l 1
 1393 1721 l 1
 1107 0 l 1
 932 0 l 1
 717 1520 l 1
 485 0 l 1
 311 0 l 1
EndSplineSet
EndChar

StartChar: X
Encoding: 56 88 105
Width: 951
VWidth: 0
Flags: HW
PickledData: "(dp1
S'com.typemytype.robofont.layerData'
p2
(dp3
s."
LayerCount: 2
Fore
SplineSet
30 0 m 1
 397 866 l 1
 30 1722 l 1
 173 1722 l 1
 475 998 l 1
 768 1722 l 1
 924 1722 l 1
 557 850 l 1
 924 0 l 1
 778 0 l 1
 480 717 l 1
 187 0 l 1
 30 0 l 1
EndSplineSet
EndChar

StartChar: Y
Encoding: 57 89 106
Width: 888
VWidth: 0
Flags: HW
PickledData: "(dp1
S'com.typemytype.robofont.layerData'
p2
(dp3
s."
LayerCount: 2
Fore
SplineSet
374 0 m 1
 374 534 l 1
 -2 1721 l 1
 152 1721 l 1
 223 1463 451 710 451 709 c 1
 573 1155 617 1275 741 1721 c 1
 890 1721 l 1
 526 534 l 1
 526 0 l 1
 374 0 l 1
EndSplineSet
EndChar

StartChar: Z
Encoding: 58 90 109
Width: 866
VWidth: 0
Flags: HW
PickledData: "(dp1
S'com.typemytype.robofont.layerData'
p2
(dp3
s."
LayerCount: 2
Fore
SplineSet
60 0 m 1
 60 141 l 1
 665 1599 l 1
 124 1599 l 1
 124 1721 l 1
 821 1721 l 1
 821 1580 l 1
 216 122 l 1
 821 122 l 1
 821 0 l 1
 60 0 l 1
EndSplineSet
EndChar

StartChar: Zdotaccent
Encoding: 294 379 112
Width: 897
VWidth: 0
Flags: HW
LayerCount: 2
Fore
SplineSet
397 1847 m 1
 397 2026 l 1
 581 2026 l 1
 581 1847 l 1
 397 1847 l 1
EndSplineSet
Refer: 109 90 N 1 0 0 1 0 0 2
EndChar

StartChar: a
Encoding: 65 97 113
Width: 820
VWidth: 0
Flags: HW
PickledData: "(dp1
S'com.typemytype.robofont.layerData'
p2
(dp3
s."
LayerCount: 2
Fore
SplineSet
551 244 m 1
 551 666 l 1
 344 523 223 431 223 267 c 0
 223 142 288 98 344 98 c 0
 420 98 507 158 551 244 c 1
581 0 m 1
 562 145 l 1
 494 26 387 -27 309 -27 c 0
 193 -27 72 72 72 239 c 0
 72 394 79 539 551 733 c 1
 551 743 l 1
 550 1094 477 1124 404 1124 c 0
 345 1124 263 1101 251 896 c 1
 251 889 l 1
 95 889 l 1
 111 1098 224 1225 399 1225 c 0
 653 1225 703 1017 703 852 c 2
 703 276 l 2
 703 135 721 0 721 0 c 1
 581 0 l 1
EndSplineSet
EndChar

StartChar: acute
Encoding: 115 180 117
Width: 444
VWidth: 0
Flags: HW
LayerCount: 2
Fore
SplineSet
96 1324 m 1
 219 1722 l 1
 381 1722 l 1
 152 1324 l 1
 96 1324 l 1
EndSplineSet
EndChar

StartChar: ae
Encoding: 164 230 119
Width: 1255
VWidth: 0
Flags: HW
LayerCount: 2
Fore
SplineSet
707 708 m 2
 707 704 l 1
 984 759 1010 875 1010 970 c 0
 1010 1051 970 1124 893 1124 c 0
 708 1124 707 948 707 708 c 2
553 489 m 2
 553 586 l 1
 296 494 225 431 225 267 c 0
 225 150 276 97 328 97 c 0
 493 97 553 383 553 489 c 2
253 889 m 1
 97 889 l 1
 113 1098 226 1225 401 1225 c 0
 519 1225 590 1170 633 1072 c 1
 696 1189 784 1225 886 1225 c 0
 1028 1225 1144 1124 1144 958 c 0
 1144 676 706 620 706 620 c 1
 706 445 l 2
 706 148 774 74 868 74 c 0
 947 74 1013 120 1018 346 c 1
 1018 367 l 1
 1158 367 l 1
 1156 345 l 2
 1137 142 1087 -27 865 -27 c 0
 723 -27 628 60 598 209 c 1
 545 19 389 -27 311 -27 c 0
 195 -27 74 72 74 239 c 0
 74 394 81 531 553 675 c 1
 553 751 l 1
 551 1095 479 1124 406 1124 c 0
 348 1124 269 1102 254 908 c 0
 254 902 253 895 253 889 c 1
EndSplineSet
EndChar

StartChar: ampersand
Encoding: 6 38 122
Width: 1116
VWidth: 0
Flags: HW
LayerCount: 2
Fore
SplineSet
442 927 m 1
 593 1072 692 1262 692 1416 c 0
 692 1536 634 1623 497 1623 c 0
 339 1623 292 1465 292 1364 c 0
 292 1245 332 1112 442 927 c 1
735 229 m 1
 406 734 l 1
 295 631 208 455 208 313 c 0
 208 190 273 94 442 94 c 0
 539 94 645 145 735 229 c 1
1094 122 m 1
 1094 -14 l 1
 993 -8 878 48 804 134 c 1
 702 38 577 -26 434 -26 c 0
 178 -26 68 118 68 298 c 0
 68 474 168 700 346 844 c 1
 213 1064 140 1236 140 1370 c 0
 140 1591 276 1745 493 1745 c 0
 711 1745 836 1611 836 1420 c 0
 836 1247 732 1026 498 817 c 1
 819 324 l 1
 908 442 968 594 968 753 c 1
 1096 753 l 1
 1096 610 1021 396 890 228 c 1
 955 156 1028 122 1094 122 c 1
EndSplineSet
EndChar

StartChar: asciicircum
Encoding: 62 94 125
Width: 739
VWidth: 0
Flags: HW
LayerCount: 2
Fore
SplineSet
220 896 m 1
 43 896 l 1
 111 1066 270 1459 270 1459 c 1
 477 1459 l 1
 703 896 l 1
 528 896 l 1
 373 1436 l 1
 220 896 l 1
EndSplineSet
EndChar

StartChar: asciitilde
Encoding: 94 126 126
Width: 815
VWidth: 0
Flags: HW
LayerCount: 2
Fore
SplineSet
213 959 m 1
 98 959 l 1
 100 1003 114 1146 275 1146 c 0
 357 1146 473 1070 550 1070 c 0
 586 1070 609 1084 616 1137 c 1
 732 1137 l 1
 729 1127 732 947 558 947 c 0
 451 947 355 1025 275 1025 c 0
 239 1025 220 1012 213 959 c 1
EndSplineSet
EndChar

StartChar: asterisk
Encoding: 10 42 127
Width: 760
VWidth: 0
Flags: HW
LayerCount: 2
Fore
SplineSet
147 963 m 1
 320 1210 l 1
 55 1311 l 1
 91 1400 l 1
 343 1281 l 1
 325 1583 l 1
 444 1583 l 1
 424 1282 l 1
 678 1402 l 1
 713 1312 l 1
 449 1210 l 1
 623 960 l 1
 534 911 l 1
 384 1163 l 1
 235 911 l 1
 147 963 l 1
EndSplineSet
EndChar

StartChar: at
Encoding: 32 64 128
Width: 1434
VWidth: 0
Flags: HW
LayerCount: 2
Fore
SplineSet
834 644 m 1
 834 1121 l 1
 781 1158 737 1174 702 1174 c 0
 604 1174 572 1020 572 840 c 0
 572 642 611 561 687 561 c 0
 764 561 799 599 834 644 c 1
1091 198 m 1
 1116 80 l 1
 1000 55 889 40 785 40 c 0
 369 40 72 247 72 868 c 0
 72 1393 372 1667 726 1667 c 0
 1131 1667 1371 1390 1371 888 c 0
 1371 564 1229 446 1094 446 c 0
 993 446 895 511 864 603 c 1
 839 486 744 447 651 447 c 0
 457 447 421 722 421 839 c 0
 421 1144 529 1280 653 1280 c 0
 711 1280 778 1253 834 1204 c 1
 834 1274 l 1
 986 1274 l 1
 986 714 l 2
 986 661 993 561 1090 561 c 0
 1149 561 1219 611 1219 881 c 0
 1219 1414 1017 1546 730 1546 c 0
 603 1546 224 1508 224 864 c 0
 224 272 517 159 780 159 c 0
 900 159 1014 184 1091 198 c 1
EndSplineSet
EndChar

StartChar: b
Encoding: 66 98 130
Width: 871
VWidth: 0
Flags: HW
PickledData: "(dp1
S'com.typemytype.robofont.layerData'
p2
(dp3
s."
LayerCount: 2
Fore
SplineSet
615 545 m 2
 615 640 l 2
 615 1093 544 1114 471 1114 c 0
 400 1114 332 1064 270 995 c 1
 270 205 l 1
 329 134 405 84 466 84 c 0
 542 84 615 96 615 545 c 2
120 0 m 1
 120 1721 l 1
 270 1721 l 1
 270 1085 l 1
 334 1179 419 1225 501 1225 c 0
 623 1225 765 1178 765 641 c 2
 765 546 l 2
 765 28 623 -27 512 -27 c 0
 437 -27 340 4 270 113 c 1
 270 0 l 1
 120 0 l 1
EndSplineSet
EndChar

StartChar: backslash
Encoding: 60 92 131
Width: 639
VWidth: 0
Flags: HW
LayerCount: 2
Fore
SplineSet
541 0 m 1
 -12 1721 l 1
 133 1721 l 1
 685 0 l 1
 541 0 l 1
EndSplineSet
EndChar

StartChar: bar
Encoding: 92 124 132
Width: 416
VWidth: 0
Flags: HW
LayerCount: 2
Fore
SplineSet
150 -128 m 1
 150 1746 l 1
 268 1746 l 1
 268 -128 l 1
 150 -128 l 1
EndSplineSet
EndChar

StartChar: braceleft
Encoding: 91 123 133
Width: 520
VWidth: 0
Flags: HW
LayerCount: 2
Fore
SplineSet
511 56 m 1
 511 -57 l 1
 168 -57 166 252 166 609 c 0
 166 697 151 768 35 768 c 1
 35 956 l 1
 151 956 166 1027 166 1115 c 0
 166 1472 168 1781 511 1781 c 1
 511 1668 l 1
 302 1668 302 1494 302 1174 c 0
 302 1040 282 904 139 862 c 1
 282 820 302 684 302 550 c 0
 302 230 302 56 511 56 c 1
EndSplineSet
EndChar

StartChar: braceright
Encoding: 93 125 134
Width: 530
VWidth: 0
Flags: HW
LayerCount: 2
Fore
SplineSet
25 -57 m 1
 25 56 l 1
 234 56 234 230 234 550 c 0
 234 684 254 820 397 862 c 1
 254 904 234 1040 234 1174 c 0
 234 1494 234 1668 25 1668 c 1
 25 1781 l 1
 368 1781 370 1472 370 1115 c 0
 370 1027 385 956 501 956 c 1
 501 768 l 1
 385 768 370 697 370 609 c 0
 370 252 368 -57 25 -57 c 1
EndSplineSet
EndChar

StartChar: bracketleft
Encoding: 59 91 135
Width: 494
VWidth: 0
Flags: HW
LayerCount: 2
Fore
SplineSet
150 -64 m 1
 150 1779 l 1
 481 1779 l 1
 481 1698 l 1
 302 1698 l 1
 302 17 l 1
 481 17 l 1
 481 -64 l 1
 150 -64 l 1
EndSplineSet
EndChar

StartChar: bracketright
Encoding: 61 93 136
Width: 504
VWidth: 0
Flags: HW
LayerCount: 2
Fore
SplineSet
25 -64 m 1
 25 17 l 1
 204 17 l 1
 204 1698 l 1
 25 1698 l 1
 25 1779 l 1
 356 1779 l 1
 356 -64 l 1
 25 -64 l 1
EndSplineSet
EndChar

StartChar: breve
Encoding: 342 728 137
Width: 739
VWidth: 0
Flags: HW
LayerCount: 2
Fore
SplineSet
92 1581 m 1
 203 1581 l 1
 223 1443 295 1422 368 1422 c 0
 441 1422 513 1443 533 1581 c 1
 644 1581 l 1
 635 1364 478 1313 368 1313 c 0
 258 1313 101 1364 92 1581 c 1
EndSplineSet
EndChar

StartChar: brokenbar
Encoding: 101 166 138
Width: 403
VWidth: 0
Flags: HW
LayerCount: 2
Fore
SplineSet
137 889 m 1
 137 1441 l 1
 269 1441 l 1
 269 889 l 1
 137 889 l 1
137 -14 m 1
 137 537 l 1
 269 537 l 1
 269 -14 l 1
 137 -14 l 1
EndSplineSet
EndChar

StartChar: bullet
Encoding: 368 8226 139
Width: 565
VWidth: 0
Flags: HW
LayerCount: 2
Fore
SplineSet
104 767 m 0
 104 874 176 949 286 949 c 0
 399 949 469 883 469 767 c 0
 469 654 399 588 286 588 c 0
 176 588 104 654 104 767 c 0
EndSplineSet
EndChar

StartChar: c
Encoding: 67 99 140
Width: 816
VWidth: 0
Flags: HW
PickledData: "(dp1
S'com.typemytype.robofont.layerData'
p2
(dp3
s."
LayerCount: 2
Fore
SplineSet
106 568 m 2
 106 630 l 2
 106 909 106 1225 433 1225 c 0
 672 1225 724 1033 736 817 c 0
 736 813 737 810 737 806 c 1
 587 806 l 1
 587 815 l 1
 579 1034 544 1124 433 1124 c 0
 276 1124 256 984 256 630 c 2
 256 568 l 2
 256 208 285 74 433 74 c 0
 540 74 577 164 587 393 c 1
 587 403 l 1
 738 403 l 1
 738 396 l 1
 728 164 680 -27 433 -27 c 0
 106 -27 106 267 106 568 c 2
EndSplineSet
EndChar

StartChar: caron
Encoding: 341 711 142
Width: 618
VWidth: 0
Flags: HW
LayerCount: 2
Fore
SplineSet
283 1324 m 1
 74 1671 l 1
 216 1671 l 1
 311 1434 l 1
 406 1671 l 1
 548 1671 l 1
 339 1324 l 1
 283 1324 l 1
EndSplineSet
EndChar

StartChar: cdotaccent
Encoding: 201 267 146
Width: 834
VWidth: 0
Flags: HW
LayerCount: 2
Fore
SplineSet
332 1327 m 1
 332 1506 l 1
 516 1506 l 1
 516 1327 l 1
 332 1327 l 1
EndSplineSet
Refer: 140 99 N 1 0 0 1 0 0 2
EndChar

StartChar: cedilla
Encoding: 118 184 147
Width: 449
VWidth: 0
Flags: HW
LayerCount: 2
Fore
SplineSet
111 -394 m 1
 111 -335 l 1
 218 -335 258 -307 258 -268 c 0
 258 -226 214 -173 155 -134 c 1
 155 0 l 1
 219 0 l 1
 219 -115 l 1
 316 -172 361 -229 361 -277 c 0
 361 -345 270 -394 111 -394 c 1
EndSplineSet
EndChar

StartChar: cent
Encoding: 97 162 148
Width: 760
VWidth: 0
Flags: HW
LayerCount: 2
Fore
SplineSet
370 87 m 1
 370 240 l 1
 76 258 76 523 76 794 c 2
 76 856 l 2
 76 1105 76 1390 369 1410 c 1
 369 1543 l 1
 434 1543 l 1
 434 1409 l 1
 645 1393 694 1211 706 1006 c 0
 706 1001 707 997 707 992 c 1
 557 992 l 1
 557 1006 l 1
 553 1116 549 1309 401 1309 c 0
 237 1309 230 1173 226 856 c 1
 226 794 l 2
 226 476 248 339 400 339 c 0
 544 339 550 528 556 652 c 0
 556 658 557 664 557 669 c 1
 708 669 l 1
 708 665 707 661 707 657 c 0
 697 437 653 256 435 240 c 1
 435 87 l 1
 370 87 l 1
EndSplineSet
EndChar

StartChar: circumflex
Encoding: 340 710 149
Width: 713
VWidth: 0
Flags: HW
LayerCount: 2
Fore
SplineSet
94 1408 m 1
 250 1715 l 1
 463 1715 l 1
 616 1408 l 1
 506 1408 l 1
 356 1707 l 1
 207 1408 l 1
 94 1408 l 1
EndSplineSet
EndChar

StartChar: colon
Encoding: 26 58 150
Width: 426
VWidth: 0
Flags: HW
LayerCount: 2
Fore
SplineSet
125 275 m 1
 125 454 l 1
 310 454 l 1
 310 275 l 1
 125 275 l 1
125 813 m 1
 125 992 l 1
 310 992 l 1
 310 813 l 1
 125 813 l 1
EndSplineSet
EndChar

StartChar: comma
Encoding: 12 44 151
Width: 389
VWidth: 0
Flags: HW
LayerCount: 2
Fore
SplineSet
160 -256 m 1
 133 -201 l 1
 225 -168 239 -47 239 0 c 1
 111 0 l 1
 111 179 l 1
 296 179 l 1
 296 -50 301 -241 160 -256 c 1
EndSplineSet
EndChar

StartChar: commaaccent
Encoding: -1 806 152
Width: 502
VWidth: 0
Flags: W
LayerCount: 2
Fore
SplineSet
205 -522 m 1
 178 -467 l 1
 270 -434 284 -313 284 -266 c 1
 156 -266 l 1
 156 -87 l 1
 341 -87 l 1
 341 -316 346 -507 205 -522 c 1
248.511 0 m 0
EndSplineSet
EndChar

StartChar: copyright
Encoding: 104 169 153
Width: 1378
VWidth: 0
Flags: HW
LayerCount: 2
Fore
SplineSet
696 67 m 0
 1055 67 1236 361 1236 657 c 0
 1236 953 1055 1247 696 1247 c 0
 337 1247 156 953 156 657 c 0
 156 361 337 67 696 67 c 0
696 -2 m 0
 278 -2 66 327 66 657 c 0
 66 987 278 1316 696 1316 c 0
 1114 1316 1326 987 1326 657 c 0
 1326 327 1114 -2 696 -2 c 0
830 505 m 1
 917 505 l 1
 917 503 917 222 702 222 c 0
 465 222 462 456 462 667 c 0
 462 878 465 1112 702 1112 c 0
 926 1112 917 831 917 829 c 1
 830 829 l 1
 827 940 808 1040 701 1040 c 0
 566 1040 555 939 555 667 c 0
 555 395 566 294 701 294 c 0
 808 294 827 394 830 505 c 1
EndSplineSet
EndChar

StartChar: currency
Encoding: 99 164 154
Width: 1028
VWidth: 0
Flags: HW
LayerCount: 2
Fore
SplineSet
516 311 m 1
 719 315 821 475 821 635 c 0
 821 795 719 954 516 959 c 1
 312 954 211 795 211 635 c 0
 211 475 312 315 516 311 c 1
168 189 m 1
 246 313 l 1
 153 393 106 514 106 635 c 0
 106 753 151 873 241 953 c 1
 168 1070 l 1
 222 1108 l 1
 294 992 l 1
 354 1029 428 1051 516 1051 c 0
 611 1051 690 1025 752 982 c 1
 831 1108 l 1
 885 1070 l 1
 803 941 l 1
 885 861 926 747 926 635 c 0
 926 520 883 405 799 325 c 1
 885 189 l 1
 831 151 l 1
 747 284 l 1
 686 244 609 219 516 219 c 0
 430 219 358 240 299 275 c 1
 222 151 l 1
 168 189 l 1
EndSplineSet
EndChar

StartChar: d
Encoding: 68 100 155
Width: 866
VWidth: 0
Flags: HW
PickledData: "(dp1
S'com.typemytype.robofont.layerData'
p2
(dp3
s."
LayerCount: 2
Fore
SplineSet
596 205 m 1
 596 995 l 1
 534 1064 466 1114 395 1114 c 0
 322 1114 251 1093 251 640 c 2
 251 545 l 2
 251 96 324 84 400 84 c 0
 461 84 537 134 596 205 c 1
596 0 m 1
 596 113 l 1
 526 4 429 -27 354 -27 c 0
 243 -27 101 28 101 546 c 2
 101 641 l 2
 101 1178 243 1225 365 1225 c 0
 447 1225 532 1179 596 1085 c 1
 596 1721 l 1
 746 1721 l 1
 746 0 l 1
 596 0 l 1
EndSplineSet
EndChar

StartChar: daggerdbl
Encoding: 367 8225 156
Width: 590
VWidth: 0
Flags: HW
LayerCount: 2
Fore
SplineSet
244 0 m 1
 244 448 l 1
 18 448 l 1
 18 537 l 1
 244 537 l 1
 244 1114 l 1
 18 1114 l 1
 18 1197 l 1
 244 1197 l 1
 244 1459 l 1
 362 1459 l 1
 362 1197 l 1
 586 1197 l 1
 586 1114 l 1
 362 1114 l 1
 362 537 l 1
 586 537 l 1
 586 448 l 1
 362 448 l 1
 362 0 l 1
 244 0 l 1
EndSplineSet
EndChar

StartChar: dcroat
Encoding: 205 273 158
Width: 892
VWidth: 0
Flags: HW
LayerCount: 2
Fore
SplineSet
418 1399 m 1
 418 1484 l 1
 596 1484 l 1
 596 1721 l 1
 746 1721 l 1
 746 1484 l 1
 860 1484 l 1
 860 1399 l 1
 746 1399 l 1
 746 0 l 1
 596 0 l 1
 596 113 l 1
 526 4 429 -27 354 -27 c 0
 243 -27 101 28 101 546 c 2
 101 641 l 2
 101 1178 243 1225 365 1225 c 0
 447 1225 532 1179 596 1085 c 1
 596 1399 l 1
 418 1399 l 1
596 205 m 1
 596 995 l 1
 534 1064 466 1114 395 1114 c 0
 322 1114 251 1093 251 640 c 2
 251 545 l 2
 251 96 324 84 400 84 c 0
 461 84 537 134 596 205 c 1
EndSplineSet
EndChar

StartChar: degree
Encoding: 111 176 159
Width: 637
VWidth: 0
Flags: HW
LayerCount: 2
Fore
SplineSet
317 1722 m 0
 470 1722 536 1610 536 1504 c 0
 536 1398 470 1286 317 1286 c 0
 164 1286 98 1398 98 1504 c 0
 98 1610 164 1722 317 1722 c 0
176 1504 m 0
 176 1438 210 1357 317 1357 c 0
 424 1357 458 1438 458 1504 c 0
 458 1570 424 1651 317 1651 c 0
 210 1651 176 1570 176 1504 c 0
EndSplineSet
EndChar

StartChar: dieresis
Encoding: 103 168 160
Width: 795
VWidth: 0
Flags: HW
LayerCount: 2
Fore
SplineSet
497 1386 m 1
 497 1565 l 1
 681 1565 l 1
 681 1386 l 1
 497 1386 l 1
113 1386 m 1
 113 1565 l 1
 297 1565 l 1
 297 1386 l 1
 113 1386 l 1
EndSplineSet
EndChar

StartChar: divide
Encoding: 181 247 161
Width: 674
VWidth: 0
Flags: HW
LayerCount: 2
Fore
SplineSet
227 233 m 1
 227 412 l 1
 411 412 l 1
 411 233 l 1
 227 233 l 1
227 879 m 1
 227 1058 l 1
 411 1058 l 1
 411 879 l 1
 227 879 l 1
35 576 m 1
 35 691 l 1
 603 691 l 1
 603 576 l 1
 35 576 l 1
EndSplineSet
EndChar

StartChar: dollar
Encoding: 4 36 162
Width: 948
VWidth: 0
Flags: HW
LayerCount: 2
Fore
SplineSet
197 484 m 1
 216 293 311 131 500 125 c 1
 647 125 769 187 769 364 c 0
 769 482 670 594 534 700 c 2
 239 930 l 1
 132 1017 57 1121 57 1234 c 0
 57 1450 220 1588 446 1594 c 1
 446 1747 l 1
 534 1747 l 1
 534 1591 l 1
 727 1567 867 1429 895 1206 c 1
 769 1167 l 1
 744 1324 636 1470 482 1470 c 0
 318 1470 204 1415 204 1254 c 0
 204 1173 257 1093 345 1020 c 1
 628 795 l 1
 772 677 914 547 914 377 c 0
 914 143 752 16 534 4 c 1
 534 -138 l 1
 446 -138 l 1
 446 6 l 1
 220 31 97 224 63 445 c 1
 197 484 l 1
EndSplineSet
EndChar

StartChar: dotaccent
Encoding: 343 729 163
Width: 410
VWidth: 0
Flags: HW
LayerCount: 2
Fore
SplineSet
113 1380 m 1
 113 1559 l 1
 297 1559 l 1
 297 1380 l 1
 113 1380 l 1
EndSplineSet
EndChar

StartChar: dotlessi
Encoding: 233 305 164
Width: 405
VWidth: 0
Flags: HW
LayerCount: 2
Fore
SplineSet
132 0 m 1
 132 1198 l 1
 282 1198 l 1
 282 0 l 1
 132 0 l 1
EndSplineSet
EndChar

StartChar: e
Encoding: 69 101 165
Width: 829
VWidth: 0
Flags: HW
PickledData: "(dp1
S'com.typemytype.robofont.layerData'
p2
(dp3
s."
LayerCount: 2
Fore
SplineSet
258 702 m 1
 590 702 l 1
 587 885 610 1124 444 1124 c 0
 259 1124 258 976 258 702 c 1
106 552 m 1
 106 719 l 1
 109 1146 247 1225 437 1225 c 0
 654 1225 739 1074 739 751 c 0
 739 702 739 676 737 628 c 1
 257 628 l 1
 257 445 l 2
 257 122 324 74 436 74 c 0
 513 74 593 138 595 367 c 1
 735 367 l 1
 717 161 662 -27 438 -27 c 0
 193 -27 102 100 106 552 c 1
EndSplineSet
EndChar

StartChar: eight
Encoding: 24 56 171
Width: 954
VWidth: 0
Flags: HW
PickledData: "(dp1
S'com.typemytype.robofont.layerData'
p2
(dp3
s."
LayerCount: 2
Fore
SplineSet
477 977 m 1
 662 988 723 1079 723 1317 c 0
 723 1547 642 1623 477 1623 c 0
 312 1623 231 1547 231 1317 c 0
 231 1079 292 988 477 977 c 1
477 847 m 1
 288 826 231 672 231 459 c 0
 231 165 317 95 477 95 c 0
 637 95 723 165 723 459 c 0
 723 672 666 826 477 847 c 1
314 910 m 1
 185 948 79 1083 79 1316 c 0
 79 1556 190 1745 477 1745 c 0
 764 1745 875 1556 875 1316 c 0
 875 1083 769 948 640 910 c 1
 742 869 875 770 875 462 c 0
 875 179 772 -27 477 -27 c 0
 182 -27 79 179 79 462 c 0
 79 770 212 869 314 910 c 1
EndSplineSet
EndChar

StartChar: emdash
Encoding: 360 8212 173
Width: 1194
VWidth: 0
Flags: HW
LayerCount: 2
Fore
SplineSet
117 448 m 1
 117 563 l 1
 1091 563 l 1
 1091 448 l 1
 117 448 l 1
EndSplineSet
EndChar

StartChar: endash
Encoding: 359 8211 174
Width: 793
VWidth: 0
Flags: HW
LayerCount: 2
Fore
SplineSet
117 448 m 1
 117 563 l 1
 691 563 l 1
 691 448 l 1
 117 448 l 1
EndSplineSet
EndChar

StartChar: equal
Encoding: 29 61 176
Width: 750
VWidth: 0
Flags: HW
LayerCount: 2
Fore
SplineSet
127 255 m 1
 127 370 l 1
 632 370 l 1
 632 255 l 1
 127 255 l 1
127 576 m 1
 127 691 l 1
 632 691 l 1
 632 576 l 1
 127 576 l 1
EndSplineSet
EndChar

StartChar: eth
Encoding: 174 240 177
Width: 877
VWidth: 0
Flags: HW
LayerCount: 2
Fore
SplineSet
234 545 m 1
 234 531 l 2
 234 197 296 95 412 95 c 0
 535 95 609 147 609 551 c 0
 609 653 604 778 594 931 c 1
 562 960 468 977 402 977 c 0
 295 977 236 876 234 545 c 1
84 532 m 2
 84 537 l 1
 85 856 172 1099 402 1099 c 0
 478 1099 541 1083 585 1054 c 1
 567 1182 544 1281 517 1358 c 1
 352 1321 l 1
 352 1416 l 1
 480 1445 l 1
 409 1576 309 1611 166 1623 c 1
 152 1745 l 1
 368 1730 518 1656 614 1475 c 1
 793 1516 l 1
 793 1421 l 1
 653 1389 l 1
 724 1203 757 929 758 535 c 1
 758 510 l 2
 758 172 663 -27 412 -27 c 0
 174 -27 84 214 84 532 c 2
EndSplineSet
EndChar

StartChar: exclam
Encoding: 1 33 178
Width: 434
VWidth: 0
Flags: HW
LayerCount: 2
Fore
SplineSet
138 0 m 1
 138 179 l 1
 323 179 l 1
 323 0 l 1
 138 0 l 1
197 388 m 1
 117 1719 l 1
 311 1719 l 1
 251 388 l 1
 197 388 l 1
EndSplineSet
EndChar

StartChar: exclamdown
Encoding: 96 161 179
Width: 434
VWidth: 0
Flags: HW
PickledData: "(dp1
S'com.typemytype.robofont.layerData'
p2
(dp3
s."
LayerCount: 2
Fore
SplineSet
304 1377 m 5
 304 1198 l 5
 119 1198 l 5
 119 1377 l 5
 304 1377 l 5
245 989 m 5
 325 -343 l 5
 131 -343 l 5
 191 989 l 5
 245 989 l 5
EndSplineSet
EndChar

StartChar: f
Encoding: 70 102 180
Width: 532
VWidth: 0
Flags: HW
PickledData: "(dp1
S'com.typemytype.robofont.layerData'
p2
(dp3
s."
LayerCount: 2
Fore
SplineSet
177 0 m 1
 177 1114 l 1
 10 1114 l 1
 10 1198 l 1
 177 1198 l 1
 177 1327 l 2
 177 1425 161 1652 394 1652 c 0
 435 1652 479 1648 516 1639 c 1
 516 1530 l 1
 504 1533 455 1536 442 1536 c 0
 322 1536 327 1449 327 1378 c 2
 327 1198 l 1
 519 1198 l 1
 519 1114 l 1
 327 1114 l 1
 327 0 l 1
 177 0 l 1
EndSplineSet
EndChar

StartChar: uniFB00
Encoding: 379 64256 181
Width: 1029
VWidth: 0
Flags: HW
LayerCount: 2
Fore
SplineSet
177 0 m 1
 177 1114 l 1
 10 1114 l 1
 10 1198 l 1
 177 1198 l 1
 177 1327 l 2
 177 1425 161 1652 394 1652 c 0
 435 1652 479 1648 516 1639 c 1
 516 1530 l 1
 504 1533 455 1536 442 1536 c 0
 322 1536 327 1449 327 1378 c 2
 327 1198 l 1
 674 1198 l 1
 674 1327 l 2
 674 1425 658 1652 891 1652 c 0
 932 1652 976 1648 1013 1639 c 1
 1013 1530 l 1
 1001 1533 952 1536 939 1536 c 0
 819 1536 824 1449 824 1378 c 2
 824 1198 l 1
 1016 1198 l 1
 1016 1114 l 1
 824 1114 l 1
 824 0 l 1
 674 0 l 1
 674 1114 l 1
 327 1114 l 1
 327 0 l 1
 177 0 l 1
EndSplineSet
Ligature2: "'liga' Standard Ligatures in Latin lookup 0-1" f f
EndChar

StartChar: uniFB03
Encoding: 386 64259 182
Width: 1439
VWidth: 0
Flags: HW
LayerCount: 2
Fore
SplineSet
1166 1472 m 1
 1166 1651 l 1
 1316 1651 l 1
 1316 1472 l 1
 1166 1472 l 1
177 0 m 1
 177 1114 l 1
 10 1114 l 1
 10 1198 l 1
 177 1198 l 1
 177 1327 l 2
 177 1425 161 1652 394 1652 c 0
 435 1652 479 1648 516 1639 c 1
 516 1530 l 1
 504 1533 455 1536 442 1536 c 0
 322 1536 327 1449 327 1378 c 2
 327 1198 l 1
 674 1198 l 1
 674 1327 l 2
 674 1425 658 1652 891 1652 c 0
 932 1652 976 1648 1013 1639 c 1
 1013 1530 l 1
 1001 1533 952 1536 939 1536 c 0
 819 1536 824 1449 824 1378 c 2
 824 1198 l 1
 1316 1198 l 1
 1316 0 l 1
 1166 0 l 1
 1166 1114 l 1
 824 1114 l 1
 824 0 l 1
 674 0 l 1
 674 1114 l 1
 327 1114 l 1
 327 0 l 1
 177 0 l 1
EndSplineSet
Ligature2: "'liga' Standard Ligatures in Latin lookup 0-1" f f i
EndChar

StartChar: uniFB04
Encoding: 387 64260 183
Width: 1480
VWidth: 0
Flags: HW
LayerCount: 2
Fore
SplineSet
177 0 m 1
 177 1114 l 1
 10 1114 l 1
 10 1198 l 1
 177 1198 l 1
 177 1327 l 2
 177 1425 161 1652 394 1652 c 0
 435 1652 479 1648 516 1639 c 1
 516 1530 l 1
 504 1533 455 1536 442 1536 c 0
 322 1536 327 1449 327 1378 c 2
 327 1198 l 1
 674 1198 l 1
 674 1367 l 2
 674 1607 799 1653 1023 1653 c 0
 1216 1653 1334 1603 1334 1603 c 1
 1334 0 l 1
 1184 0 l 1
 1184 1532 l 1
 1184 1532 1055 1542 1012 1542 c 0
 879 1542 824 1516 824 1378 c 2
 824 1198 l 1
 1073 1198 l 1
 1073 1114 l 1
 824 1114 l 1
 824 0 l 1
 674 0 l 1
 674 1114 l 1
 327 1114 l 1
 327 0 l 1
 177 0 l 1
EndSplineSet
Ligature2: "'liga' Standard Ligatures in Latin lookup 0-1" f f l
EndChar

StartChar: five
Encoding: 21 53 184
Width: 948
VWidth: 0
Flags: HW
PickledData: "(dp1
S'com.typemytype.robofont.layerData'
p2
(dp3
s."
LayerCount: 2
Fore
SplineSet
123 430 m 1
 275 441 l 1
 275 156 350 95 501 95 c 0
 659 95 737 209 737 535 c 0
 737 845 668 954 510 954 c 0
 431 954 329 913 264 814 c 1
 142 814 l 1
 142 1721 l 1
 801 1721 l 1
 787 1599 l 1
 294 1599 l 1
 273 966 l 1
 334 1031 436 1076 540 1076 c 0
 799 1076 889 834 889 536 c 0
 889 224 781 -27 501 -27 c 0
 229 -27 123 140 123 430 c 1
EndSplineSet
EndChar

StartChar: foundryicon
Encoding: 388 -1 185
Width: 1362
VWidth: 0
Flags: HW
LayerCount: 2
Fore
SplineSet
221 277 m 1
 389 819 l 1
 -70 1157 l 1
 502 1168 l 1
 680 1710 l 1
 868 1168 l 1
 1440 1168 l 1
 979 819 l 1
 1149 277 l 1
 680 604 l 1
 221 277 l 1
EndSplineSet
EndChar

StartChar: four
Encoding: 20 52 186
Width: 848
VWidth: 0
Flags: HW
PickledData: "(dp1
S'com.typemytype.robofont.layerData'
p2
(dp3
s."
LayerCount: 2
Fore
SplineSet
186 622 m 1
 505 622 l 1
 504 1596 l 1
 186 622 l 1
505 0 m 1
 505 509 l 1
 27 509 l 1
 27 614 l 1
 424 1723 l 1
 657 1723 l 1
 657 622 l 1
 828 622 l 1
 828 509 l 1
 657 509 l 1
 657 0 l 1
 505 0 l 1
EndSplineSet
EndChar

StartChar: fraction
Encoding: 371 8260 187
Width: 651
VWidth: 0
Flags: HW
LayerCount: 2
Fore
SplineSet
-29 0 m 1
 523 1721 l 1
 668 1721 l 1
 115 0 l 1
 -29 0 l 1
EndSplineSet
EndChar

StartChar: g
Encoding: 71 103 188
Width: 881
VWidth: 0
Flags: HW
PickledData: "(dp1
S'com.typemytype.robofont.layerData'
p2
(dp3
s."
LayerCount: 2
Fore
SplineSet
428 468 m 0
 602 468 623 676 623 776 c 0
 623 869 603 1103 428 1103 c 0
 252 1103 232 869 232 776 c 0
 232 675 252 468 428 468 c 0
524 3 m 1
 310 49 l 1
 250 5 159 -115 159 -191 c 0
 159 -291 322 -286 418 -286 c 0
 486 -286 683 -283 683 -157 c 0
 683 -61 636 -18 524 3 c 1
214 210 m 0
 206 174 248 170 469 125 c 0
 669 84 824 22 824 -130 c 0
 824 -372 537 -393 416 -393 c 0
 324 -393 17 -394 17 -236 c 0
 17 -90 133 14 241 69 c 1
 230 71 76 108 76 150 c 0
 76 230 190 378 219 418 c 1
 119 509 79 659 79 793 c 0
 79 979 170 1224 423 1224 c 0
 562 1224 635 1147 706 1038 c 1
 744 1104 802 1200 888 1221 c 1
 888 1076 l 1
 835 1066 776 1025 737 981 c 1
 760 917 775 854 775 800 c 0
 775 566 678 358 427 358 c 0
 372 358 312 370 283 382 c 1
 260 338 227 271 214 210 c 0
EndSplineSet
EndChar

StartChar: gcommaaccent
Encoding: 219 291 190
Width: 929
VWidth: 0
Flags: HW
PickledData: "(dp1
S'com.typemytype.robofont.layerData'
p2
(dp3
s."
LayerCount: 2
Fore
SplineSet
501 1727 m 1
 528 1672 l 1
 436 1639 422 1518 422 1471 c 1
 550 1471 l 1
 550 1292 l 1
 365 1292 l 1
 365 1521 360 1712 501 1727 c 1
EndSplineSet
Refer: 188 103 N 1 0 0 1 0 0 2
EndChar

StartChar: gdotaccent
Encoding: 217 289 191
Width: 929
VWidth: 0
Flags: HW
PickledData: "(dp1
S'com.typemytype.robofont.layerData'
p2
(dp3
s."
LayerCount: 2
Fore
SplineSet
383 1327 m 1
 383 1506 l 1
 567 1506 l 1
 567 1327 l 1
 383 1327 l 1
EndSplineSet
Refer: 188 103 N 1 0 0 1 0 0 2
EndChar

StartChar: germandbls
Encoding: 157 223 192
Width: 1053
VWidth: 0
Flags: HW
LayerCount: 2
Fore
SplineSet
137 0 m 1
 137 1338 l 2
 137 1610 322 1746 506 1746 c 0
 687 1746 866 1606 866 1328 c 0
 866 1193 794 1025 650 967 c 1
 909 909 961 629 961 453 c 0
 961 210 848 -27 384 -27 c 1
 384 89 l 1
 752 89 809 271 809 453 c 0
 809 685 751 889 481 889 c 2
 376 889 l 1
 376 1006 l 1
 483 1006 l 2
 653 1006 703 1161 703 1325 c 0
 703 1533 602 1638 499 1638 c 0
 395 1638 289 1537 289 1335 c 2
 289 0 l 1
 137 0 l 1
EndSplineSet
EndChar

StartChar: grave
Encoding: 64 96 193
Width: 451
VWidth: 0
Flags: HW
LayerCount: 2
Fore
SplineSet
299 1324 m 1
 70 1722 l 1
 232 1722 l 1
 355 1324 l 1
 299 1324 l 1
EndSplineSet
EndChar

StartChar: greater
Encoding: 30 62 194
Width: 727
VWidth: 0
Flags: HW
LayerCount: 2
Fore
SplineSet
102 94 m 1
 102 261 l 1
 579 603 l 1
 377 745 304 798 102 942 c 1
 102 1109 l 1
 102 1109 526 809 671 709 c 1
 671 494 l 1
 102 94 l 1
EndSplineSet
EndChar

StartChar: guillemotleft
Encoding: 106 171 195
Width: 874
VWidth: 0
Flags: HW
LayerCount: 2
Fore
SplineSet
778 124 m 1
 390 576 l 1
 390 704 l 1
 778 1156 l 1
 778 956 l 1
 502 641 l 1
 778 324 l 1
 778 124 l 1
466 124 m 1
 78 576 l 1
 78 704 l 1
 466 1156 l 1
 466 956 l 1
 190 641 l 1
 466 324 l 1
 466 124 l 1
EndSplineSet
EndChar

StartChar: guillemotright
Encoding: 121 187 196
Width: 872
VWidth: 0
Flags: HW
LayerCount: 2
Fore
SplineSet
423 124 m 1
 423 324 l 1
 699 641 l 1
 423 956 l 1
 423 1156 l 1
 811 704 l 1
 811 576 l 1
 423 124 l 1
111 124 m 1
 111 324 l 1
 387 641 l 1
 111 956 l 1
 111 1156 l 1
 499 704 l 1
 499 576 l 1
 111 124 l 1
EndSplineSet
EndChar

StartChar: guilsinglleft
Encoding: 369 8249 197
Width: 561
VWidth: 0
Flags: HW
LayerCount: 2
Fore
SplineSet
466 124 m 1
 78 576 l 1
 78 704 l 1
 466 1156 l 1
 466 956 l 1
 190 641 l 1
 466 324 l 1
 466 124 l 1
EndSplineSet
EndChar

StartChar: guilsinglright
Encoding: 370 8250 198
Width: 561
VWidth: 0
Flags: HW
LayerCount: 2
Fore
SplineSet
78 124 m 1
 78 324 l 1
 354 641 l 1
 78 956 l 1
 78 1156 l 1
 466 704 l 1
 466 576 l 1
 78 124 l 1
EndSplineSet
EndChar

StartChar: h
Encoding: 72 104 199
Width: 860
VWidth: 0
Flags: HW
PickledData: "(dp1
S'com.typemytype.robofont.layerData'
p2
(dp3
S'back'
p4
(dp5
S'name'
p6
S'h'
sS'lib'
p7
(dp8
sS'unicodes'
p9
(tsS'width'
p10
I860
sS'contours'
p11
((dp12
S'points'
p13
((dp14
S'segmentType'
p15
S'line'
p16
sS'x'
F120
sS'smooth'
p17
I00
sS'y'
F0
s(dp18
g15
S'line'
p19
sS'x'
F120
sg17
I00
sS'y'
F1198
s(dp20
g15
S'line'
p21
sS'x'
F270
sg17
I00
sS'y'
F1198
s(dp22
g15
S'line'
p23
sS'x'
F270
sg17
I00
sS'y'
F1085
s(dp24
S'y'
F1183
sS'x'
F337
sg17
I00
s(dp25
S'y'
F1225
sS'x'
F433
sg17
I00
s(dp26
g15
S'curve'
p27
sS'x'
F524
sg17
I01
sS'y'
F1225
s(dp28
S'y'
F1225
sS'x'
F631
sg17
I00
s(dp29
S'y'
F1133
sS'x'
F748
sg17
I00
s(dp30
g15
S'curve'
p31
sS'x'
F748
sg17
I01
sS'y'
F941
s(dp32
g15
S'line'
p33
sS'x'
F748
sg17
I00
sS'y'
F0
s(dp34
g15
S'line'
p35
sS'x'
F596
sg17
I00
sS'y'
F0
s(dp36
g15
S'line'
p37
sS'x'
F596
sg17
I01
sS'y'
F944
s(dp38
S'y'
F1071
sS'x'
F596
sg17
I00
s(dp39
S'y'
F1114
sS'x'
F538
sg17
I00
s(dp40
g15
S'curve'
p41
sS'x'
F469
sg17
I01
sS'y'
F1114
s(dp42
S'y'
F1114
sS'x'
F407
sg17
I00
s(dp43
S'y'
F1068
sS'x'
F330
sg17
I00
s(dp44
g15
S'curve'
p45
sS'x'
F270
sg17
I00
sS'y'
F993
s(dp46
g15
S'line'
p47
sS'x'
F270
sg17
I00
sS'y'
F0
stp48
stp49
sS'components'
p50
(tsS'anchors'
p51
((dp52
S'y'
F0
sS'x'
F439
sg6
S'bottom'
p53
s(dp54
S'y'
F1198
sS'x'
F439
sg6
S'top'
p55
stp56
sss."
LayerCount: 2
Fore
SplineSet
120 0 m 1
 120 1721 l 1
 270 1721 l 1
 270 1085 l 1
 334 1184 435 1225 522 1225 c 0
 634 1225 748 1134 748 942 c 2
 748 0 l 1
 596 0 l 1
 596 934 l 2
 596 1054 552 1114 470 1114 c 0
 405 1114 322 1063 270 992 c 1
 270 0 l 1
 120 0 l 1
EndSplineSet
EndChar

StartChar: hbar
Encoding: 223 295 200
Width: 912
VWidth: 0
Flags: HW
LayerCount: 2
Fore
SplineSet
154 0 m 1
 154 1403 l 1
 31 1403 l 1
 31 1498 l 1
 154 1498 l 1
 154 1721 l 1
 304 1721 l 1
 304 1498 l 1
 472 1498 l 1
 472 1403 l 1
 304 1403 l 1
 304 1085 l 1
 368 1184 461 1225 548 1225 c 0
 660 1225 782 1134 782 942 c 2
 782 0 l 1
 630 0 l 1
 630 934 l 2
 630 1048 563 1088 509 1088 c 0
 444 1088 365 1049 305 992 c 1
 305 0 l 1
 154 0 l 1
EndSplineSet
EndChar

StartChar: hungarumlaut
Encoding: 347 733 201
Width: 655
VWidth: 0
Flags: HW
LayerCount: 2
Fore
SplineSet
331 1408 m 1
 437 1721 l 1
 597 1721 l 1
 390 1408 l 1
 331 1408 l 1
100 1408 m 1
 206 1721 l 1
 366 1721 l 1
 159 1408 l 1
 100 1408 l 1
EndSplineSet
EndChar

StartChar: hyphen
Encoding: 13 45 202
Width: 532
VWidth: 0
Flags: HW
LayerCount: 2
Fore
SplineSet
117 448 m 1
 117 563 l 1
 430 563 l 1
 430 448 l 1
 117 448 l 1
EndSplineSet
EndChar

StartChar: i
Encoding: 73 105 203
Width: 405
VWidth: 0
Flags: HW
LayerCount: 2
Fore
SplineSet
132 1472 m 1
 132 1651 l 1
 282 1651 l 1
 282 1472 l 1
 132 1472 l 1
132 0 m 1
 132 1198 l 1
 282 1198 l 1
 282 0 l 1
 132 0 l 1
EndSplineSet
EndChar

StartChar: integral
Encoding: 376 8747 211
Width: 500
VWidth: 0
Flags: HW
LayerCount: 2
Fore
SplineSet
-41 -381 m 1
 -41 -272 l 1
 -29 -275 20 -278 33 -278 c 0
 153 -278 148 -191 148 -120 c 2
 148 1367 l 2
 148 1476 160 1652 365 1652 c 0
 406 1652 450 1648 487 1639 c 1
 487 1530 l 1
 475 1533 426 1536 413 1536 c 0
 293 1536 298 1449 298 1378 c 2
 298 -110 l 2
 298 -219 286 -394 81 -394 c 0
 40 -394 -4 -390 -41 -381 c 1
EndSplineSet
EndChar

StartChar: j
Encoding: 74 106 214
Width: 428
VWidth: 0
Flags: HW
PickledData: "(dp1
S'com.typemytype.robofont.layerData'
p2
(dp3
s."
LayerCount: 2
Fore
SplineSet
148 1473 m 1
 148 1652 l 1
 298 1652 l 1
 298 1473 l 1
 148 1473 l 1
-44 -312 m 1
 -44 -204 l 1
 -21 -205 2 -206 12 -206 c 0
 148 -206 148 -80 148 -18 c 2
 148 1198 l 1
 298 1198 l 1
 298 -46 l 2
 298 -242 200 -320 37 -320 c 0
 24 -320 -13 -318 -44 -312 c 1
EndSplineSet
EndChar

StartChar: k
Encoding: 75 107 216
Width: 830
VWidth: 0
Flags: HW
PickledData: "(dp1
S'com.typemytype.robofont.layerData'
p2
(dp3
s."
LayerCount: 2
Fore
SplineSet
120 0 m 1
 120 1721 l 1
 270 1721 l 1
 270 630 l 1
 644 1198 l 1
 813 1198 l 1
 526 744 l 1
 811 0 l 1
 654 0 l 1
 419 653 l 1
 270 470 l 1
 270 0 l 1
 120 0 l 1
EndSplineSet
EndChar

StartChar: kgreenlandic
Encoding: 240 312 218
Width: 880
VWidth: 0
Flags: HW
LayerCount: 2
Fore
SplineSet
120 0 m 1
 120 1198 l 1
 270 1198 l 1
 270 600 l 1
 644 1198 l 1
 815 1198 l 1
 520 717 l 1
 816 0 l 1
 654 0 l 1
 411 619 l 1
 270 420 l 1
 270 0 l 1
 120 0 l 1
EndSplineSet
EndChar

StartChar: l
Encoding: 76 108 219
Width: 442
VWidth: 0
Flags: HW
PickledData: "(dp1
S'com.typemytype.robofont.layerData'
p2
(dp3
s."
LayerCount: 2
Fore
SplineSet
146 0 m 1
 146 1721 l 1
 296 1721 l 1
 296 0 l 1
 146 0 l 1
EndSplineSet
EndChar

StartChar: less
Encoding: 28 60 224
Width: 727
VWidth: 0
Flags: HW
LayerCount: 2
Fore
SplineSet
76 494 m 1
 76 709 l 1
 645 1107 l 1
 645 942 l 1
 168 603 l 1
 369 458 443 407 645 261 c 1
 645 94 l 1
 645 94 219 392 76 494 c 1
EndSplineSet
EndChar

StartChar: logicalnot
Encoding: 107 172 225
Width: 657
VWidth: 0
Flags: HW
LayerCount: 2
Fore
SplineSet
100 448 m 1
 100 563 l 1
 540 563 l 1
 540 256 l 1
 484 256 l 1
 484 448 l 1
 100 448 l 1
EndSplineSet
EndChar

StartChar: lslash
Encoding: 247 322 226
Width: 530
VWidth: 0
Flags: HW
LayerCount: 2
Fore
SplineSet
183 0 m 1
 183 873 l 1
 43 806 l 1
 43 921 l 1
 183 988 l 1
 183 1721 l 1
 333 1721 l 1
 333 1061 l 1
 469 1127 l 1
 469 1012 l 1
 333 946 l 1
 333 0 l 1
 183 0 l 1
EndSplineSet
EndChar

StartChar: m
Encoding: 77 109 227
Width: 1335
VWidth: 0
Flags: HW
PickledData: "(dp1
S'com.typemytype.robofont.layerData'
p2
(dp3
S'back'
p4
(dp5
S'name'
p6
S'm'
sS'lib'
p7
(dp8
sS'unicodes'
p9
(tsS'width'
p10
I1335
sS'contours'
p11
((dp12
S'points'
p13
((dp14
S'segmentType'
p15
S'line'
p16
sS'x'
F120
sS'smooth'
p17
I00
sS'y'
F0
s(dp18
g15
S'line'
p19
sS'x'
F120
sg17
I00
sS'y'
F1198
s(dp20
g15
S'line'
p21
sS'x'
F270
sg17
I00
sS'y'
F1198
s(dp22
g15
S'line'
p23
sS'x'
F270
sg17
I00
sS'y'
F1085
s(dp24
S'y'
F1183
sS'x'
F337
sg17
I00
s(dp25
S'y'
F1225
sS'x'
F433
sg17
I00
s(dp26
g15
S'curve'
p27
sS'x'
F524
sg17
I01
sS'y'
F1225
s(dp28
S'y'
F1225
sS'x'
F631
sg17
I00
s(dp29
S'y'
F1133
sS'x'
F748
sg17
I00
s(dp30
g15
S'curve'
p31
sS'x'
F748
sg17
I01
sS'y'
F941
s(dp32
g15
S'line'
p33
sS'x'
F748
sg17
I00
sS'y'
F0
s(dp34
g15
S'line'
p35
sS'x'
F596
sg17
I00
sS'y'
F0
s(dp36
g15
S'line'
p37
sS'x'
F596
sg17
I01
sS'y'
F944
s(dp38
S'y'
F1071
sS'x'
F596
sg17
I00
s(dp39
S'y'
F1114
sS'x'
F538
sg17
I00
s(dp40
g15
S'curve'
p41
sS'x'
F469
sg17
I01
sS'y'
F1114
s(dp42
S'y'
F1114
sS'x'
F407
sg17
I00
s(dp43
S'y'
F1068
sS'x'
F330
sg17
I00
s(dp44
g15
S'curve'
p45
sS'x'
F270
sg17
I00
sS'y'
F993
s(dp46
g15
S'line'
p47
sS'x'
F270
sg17
I00
sS'y'
F0
stp48
stp49
sS'components'
p50
(tsS'anchors'
p51
((dp52
S'y'
F0
sS'x'
F439
sg6
S'bottom'
p53
s(dp54
S'y'
F1198
sS'x'
F439
sg6
S'top'
p55
stp56
sss."
LayerCount: 2
Fore
SplineSet
120 0 m 1
 120 1198 l 1
 271 1198 l 1
 271 1087 l 1
 353 1184 445 1225 537 1225 c 0
 618 1225 703 1169 737 1089 c 1
 821 1184 923 1225 994 1225 c 0
 1113 1225 1223 1132 1223 1001 c 2
 1223 0 l 1
 1073 0 l 1
 1073 970 l 2
 1073 1075 1019 1114 950 1114 c 0
 890 1114 820 1077 760 1017 c 1
 760 0 l 1
 610 0 l 1
 610 971 l 2
 610 1076 556 1114 483 1114 c 0
 415 1114 335 1068 270 995 c 1
 270 0 l 1
 120 0 l 1
EndSplineSet
EndChar

StartChar: macron
Encoding: 110 175 228
Width: 702
VWidth: 0
Flags: HW
LayerCount: 2
Fore
SplineSet
131 1383 m 1
 131 1498 l 1
 572 1498 l 1
 572 1383 l 1
 131 1383 l 1
EndSplineSet
EndChar

StartChar: minus
Encoding: 391 8722 229
Width: 702
VWidth: 0
Flags: HW
PickledData: "(dp1
S'com.typemytype.robofont.layerData'
p2
(dp3
s."
LayerCount: 2
Fore
SplineSet
106 461 m 1
 106 576 l 1
 610 576 l 1
 610 461 l 1
 106 461 l 1
EndSplineSet
EndChar

StartChar: multiply
Encoding: 149 215 230
Width: 674
VWidth: 0
Flags: HW
LayerCount: 2
Fore
SplineSet
51 410 m 1
 243 602 l 1
 51 794 l 1
 127 869 l 1
 319 677 l 1
 511 869 l 1
 587 794 l 1
 395 602 l 1
 395 602 562 434 587 410 c 1
 511 334 l 1
 319 526 l 1
 127 334 l 1
 51 410 l 1
EndSplineSet
EndChar

StartChar: n
Encoding: 78 110 231
Width: 860
VWidth: 0
Flags: HW
PickledData: "(dp1
S'com.typemytype.robofont.layerData'
p2
(dp3
s."
LayerCount: 2
Fore
SplineSet
120 0 m 1
 120 1198 l 1
 270 1198 l 1
 270 1085 l 1
 337 1183 433 1225 524 1225 c 0
 631 1225 748 1133 748 941 c 2
 748 0 l 1
 596 0 l 1
 596 944 l 2
 596 1071 538 1114 469 1114 c 0
 407 1114 330 1068 270 993 c 1
 270 0 l 1
 120 0 l 1
EndSplineSet
EndChar

StartChar: nine
Encoding: 25 57 236
Width: 990
VWidth: 0
Flags: HW
PickledData: "(dp1
S'com.typemytype.robofont.layerData'
p2
(dp3
s."
LayerCount: 2
Fore
SplineSet
724 907 m 1
 724 1217 l 2
 724 1550 646 1623 488 1623 c 0
 316 1623 232 1531 232 1237 c 0
 232 951 313 861 478 861 c 0
 566 861 680 878 724 907 c 1
118 395 m 2
 118 421 l 1
 260 421 l 1
 266 147 349 95 502 95 c 0
 642 95 724 165 724 459 c 2
 724 784 l 1
 663 755 582 739 478 739 c 0
 191 739 80 956 80 1236 c 0
 80 1524 194 1745 488 1745 c 0
 767 1745 876 1554 876 1228 c 2
 876 462 l 2
 876 179 776 -27 488 -27 c 0
 213 -27 118 181 118 395 c 2
EndSplineSet
EndChar

StartChar: numbersign
Encoding: 3 35 238
Width: 1020
VWidth: 0
Flags: HW
LayerCount: 2
Fore
SplineSet
382 785 m 1
 559 785 l 1
 626 1024 l 1
 449 1024 l 1
 382 785 l 1
18 0 m 1
 203 660 l 1
 48 660 l 1
 48 785 l 1
 238 785 l 1
 305 1024 l 1
 98 1024 l 1
 98 1139 l 1
 337 1139 l 1
 500 1721 l 1
 645 1721 l 1
 482 1139 l 1
 658 1139 l 1
 821 1721 l 1
 966 1721 l 1
 803 1139 l 1
 957 1139 l 1
 957 1024 l 1
 770 1024 l 1
 703 785 l 1
 907 785 l 1
 907 660 l 1
 668 660 l 1
 483 0 l 1
 339 0 l 1
 524 660 l 1
 347 660 l 1
 162 0 l 1
 18 0 l 1
EndSplineSet
EndChar

StartChar: o
Encoding: 79 111 239
Width: 846
VWidth: 0
Flags: HW
PickledData: "(dp1
S'com.typemytype.robofont.layerData'
p2
(dp3
s."
LayerCount: 2
Fore
SplineSet
106 568 m 2
 106 630 l 2
 106 909 106 1225 423 1225 c 0
 740 1225 740 909 740 630 c 2
 740 568 l 2
 740 267 740 -27 423 -27 c 0
 106 -27 106 267 106 568 c 2
256 630 m 2
 256 568 l 2
 256 208 283 74 423 74 c 0
 563 74 590 208 590 568 c 2
 590 630 l 2
 590 984 569 1124 423 1124 c 0
 275 1124 256 984 256 630 c 2
EndSplineSet
EndChar

StartChar: oe
Encoding: 261 339 244
Width: 1332
VWidth: 0
Flags: HW
LayerCount: 2
Fore
SplineSet
744 702 m 1
 1076 702 l 1
 1074 883 1092 1124 930 1124 c 0
 748 1124 744 967 744 702 c 1
258 630 m 2
 258 568 l 2
 258 208 285 74 425 74 c 0
 565 74 592 208 592 568 c 2
 592 630 l 2
 592 984 571 1124 425 1124 c 0
 277 1124 258 984 258 630 c 2
108 568 m 2
 108 630 l 2
 108 909 108 1225 425 1225 c 0
 547 1225 622 1178 668 1104 c 1
 727 1200 817 1225 923 1225 c 0
 1140 1225 1225 1074 1225 751 c 0
 1225 702 1225 676 1223 628 c 1
 743 628 l 1
 743 445 l 2
 743 122 810 74 922 74 c 0
 999 74 1078 142 1081 367 c 1
 1220 367 l 1
 1202 162 1147 -27 924 -27 c 0
 804 -27 721 3 668 87 c 1
 622 17 547 -27 425 -27 c 0
 108 -27 108 267 108 568 c 2
EndSplineSet
EndChar

StartChar: ogonek
Encoding: 345 731 245
Width: 475
VWidth: 0
Flags: HW
LayerCount: 2
Fore
SplineSet
378 -288 m 1
 378 -358 l 1
 196 -358 98 -344 98 -219 c 0
 98 -114 211 -21 253 0 c 1
 322 0 l 1
 253 -62 191 -131 191 -210 c 0
 191 -288 254 -288 378 -288 c 1
EndSplineSet
EndChar

StartChar: one
Encoding: 17 49 249
Width: 532
VWidth: 0
Flags: HW
LayerCount: 2
Fore
SplineSet
233 0 m 1
 233 1478 l 1
 174 1438 86 1399 41 1389 c 1
 41 1533 l 1
 102 1555 220 1618 282 1721 c 1
 385 1721 l 1
 385 0 l 1
 233 0 l 1
EndSplineSet
EndChar

StartChar: onehalf
Encoding: 123 189 250
Width: 1716
VWidth: 0
Flags: HW
LayerCount: 2
Fore
SplineSet
1126 -1 m 1
 1126 99 l 1
 1431 558 l 1
 1477 632 1548 753 1548 836 c 0
 1548 958 1514 1048 1424 1048 c 0
 1289 1048 1270 920 1270 784 c 1
 1128 784 l 1
 1128 1013 1216 1156 1423 1156 c 0
 1606 1156 1690 1029 1690 837 c 0
 1690 739 1614 603 1560 519 c 2
 1295 110 l 1
 1676 110 l 1
 1676 -1 l 1
 1126 -1 l 1
468 0 m 1
 1020 1721 l 1
 1165 1721 l 1
 612 0 l 1
 468 0 l 1
192 588 m 1
 192 1497 l 1
 133 1456 45 1418 0 1408 c 1
 0 1533 l 1
 61 1555 179 1618 241 1721 c 1
 328 1721 l 1
 328 588 l 1
 192 588 l 1
EndSplineSet
EndChar

StartChar: onequarter
Encoding: 122 188 251
Width: 1499
VWidth: 0
Flags: HW
LayerCount: 2
Fore
SplineSet
192 588 m 1
 192 1497 l 1
 133 1456 45 1418 0 1408 c 1
 0 1533 l 1
 61 1555 179 1618 241 1721 c 1
 328 1721 l 1
 328 588 l 1
 192 588 l 1
348 0 m 1
 900 1721 l 1
 1045 1721 l 1
 492 0 l 1
 348 0 l 1
1028 378 m 1
 1258 378 l 1
 1257 1016 l 1
 1028 378 l 1
883 276 m 1
 883 371 l 1
 1184 1132 l 1
 1394 1132 l 1
 1394 378 l 1
 1528 378 l 1
 1528 276 l 1
 1394 276 l 1
 1394 -1 l 1
 1258 -1 l 1
 1258 276 l 1
 883 276 l 1
EndSplineSet
EndChar

StartChar: ordfeminine
Encoding: 105 170 252
Width: 745
VWidth: 0
Flags: HW
LayerCount: 2
Fore
SplineSet
493 193 m 1
 493 524 l 1
 321 413 220 341 220 212 c 0
 220 115 274 81 321 81 c 0
 384 81 456 127 493 193 c 1
518 0 m 1
 502 120 l 1
 445 21 356 -23 291 -23 c 0
 195 -23 94 56 94 189 c 0
 94 312 100 427 493 580 c 1
 493 845 432 866 371 866 c 0
 321 866 252 846 243 670 c 1
 113 670 l 1
 126 844 221 950 366 950 c 0
 578 950 620 777 620 639 c 2
 620 220 l 2
 620 107 635 0 635 0 c 1
 518 0 l 1
EndSplineSet
EndChar

StartChar: ordmasculine
Encoding: 120 186 253
Width: 715
VWidth: 0
Flags: HW
LayerCount: 2
Fore
SplineSet
111 1234 m 2
 111 1283 l 2
 111 1500 111 1747 358 1747 c 0
 606 1747 606 1500 606 1283 c 2
 606 1234 l 2
 606 999 606 770 358 770 c 0
 111 770 111 999 111 1234 c 2
228 1283 m 2
 228 1234 l 2
 228 953 249 849 358 849 c 0
 468 849 489 953 489 1234 c 2
 489 1283 l 2
 489 1559 472 1668 358 1668 c 0
 243 1668 228 1559 228 1283 c 2
EndSplineSet
EndChar

StartChar: oslash
Encoding: 182 248 254
Width: 850
VWidth: 0
Flags: HW
PickledData: "(dp1
S'com.typemytype.robofont.layerData'
p2
(dp3
s."
LayerCount: 2
Fore
SplineSet
740 568 m 2
 740 267 740 -27 423 -27 c 0
 363 -27 314 -16 274 3 c 1
 191 -256 l 1
 143 -240 l 1
 230 31 l 1
 106 132 106 348 106 568 c 2
 106 630 l 2
 106 909 106 1225 423 1225 c 0
 497 1225 554 1208 598 1178 c 1
 695 1481 l 1
 744 1465 l 1
 640 1140 l 1
 740 1027 740 820 740 630 c 2
 740 568 l 2
423 74 m 0
 563 74 590 208 590 568 c 2
 590 630 l 2
 590 762 587 865 576 941 c 1
 314 127 l 1
 339 90 374 74 423 74 c 0
256 630 m 2
 256 568 l 2
 256 397 262 277 284 198 c 1
 552 1036 l 1
 528 1097 487 1124 423 1124 c 0
 275 1124 256 984 256 630 c 2
EndSplineSet
EndChar

StartChar: p
Encoding: 80 112 256
Width: 871
VWidth: 0
Flags: HW
PickledData: "(dp1
S'com.typemytype.robofont.layerData'
p2
(dp3
s."
LayerCount: 2
Fore
SplineSet
615 558 m 2
 615 653 l 2
 615 1102 542 1114 466 1114 c 0
 405 1114 329 1064 270 993 c 1
 270 203 l 1
 332 134 400 84 471 84 c 0
 544 84 615 105 615 558 c 2
120 -385 m 1
 120 1198 l 1
 270 1198 l 1
 270 1085 l 1
 340 1194 437 1225 512 1225 c 0
 623 1225 765 1170 765 652 c 2
 765 557 l 2
 765 20 623 -27 501 -27 c 0
 419 -27 334 19 270 113 c 1
 270 -385 l 1
 120 -385 l 1
EndSplineSet
EndChar

StartChar: paragraph
Encoding: 116 182 257
Width: 969
VWidth: 0
Flags: HW
LayerCount: 2
Fore
SplineSet
389 0 m 1
 389 876 l 1
 166 876 23 978 23 1165 c 0
 23 1345 142 1459 394 1459 c 2
 831 1459 l 1
 831 0 l 1
 725 0 l 1
 725 876 l 1
 514 876 l 1
 514 0 l 1
 389 0 l 1
EndSplineSet
EndChar

StartChar: parenleft
Encoding: 8 40 258
Width: 535
VWidth: 0
Flags: HW
LayerCount: 2
Fore
SplineSet
541 68 m 1
 541 -64 l 1
 106 -64 115 530 115 861 c 0
 115 1192 106 1787 541 1787 c 1
 541 1655 l 1
 277 1655 267 1263 267 903 c 0
 267 527 257 68 541 68 c 1
EndSplineSet
EndChar

StartChar: parenright
Encoding: 9 41 259
Width: 545
VWidth: 0
Flags: HW
LayerCount: 2
Fore
SplineSet
18 -64 m 1
 18 68 l 1
 302 68 292 527 292 903 c 0
 292 1263 282 1655 18 1655 c 1
 18 1787 l 1
 453 1787 444 1192 444 861 c 0
 444 530 453 -64 18 -64 c 1
EndSplineSet
EndChar

StartChar: percent
Encoding: 5 37 260
Width: 1257
VWidth: 0
Flags: HW
LayerCount: 2
Fore
SplineSet
783 307 m 2
 783 541 l 2
 783 723 837 865 1009 865 c 0
 1181 865 1235 723 1235 541 c 2
 1235 307 l 2
 1235 127 1185 -27 1009 -27 c 0
 833 -27 783 127 783 307 c 2
1118 310 m 2
 1118 538 l 2
 1118 665 1094 764 1009 764 c 0
 924 764 900 665 900 538 c 2
 900 310 l 2
 900 177 924 74 1009 74 c 0
 1094 74 1118 177 1118 310 c 2
57 1187 m 2
 57 1421 l 2
 57 1603 111 1745 283 1745 c 0
 455 1745 509 1603 509 1421 c 2
 509 1187 l 2
 509 1007 459 853 283 853 c 0
 107 853 57 1007 57 1187 c 2
392 1190 m 2
 392 1418 l 2
 392 1545 368 1644 283 1644 c 0
 198 1644 174 1545 174 1418 c 2
 174 1190 l 2
 174 1057 198 954 283 954 c 0
 368 954 392 1057 392 1190 c 2
305 0 m 1
 857 1721 l 1
 981 1721 l 1
 428 0 l 1
 305 0 l 1
EndSplineSet
EndChar

StartChar: period
Encoding: 14 46 261
Width: 397
VWidth: 0
Flags: HW
LayerCount: 2
Fore
SplineSet
115 0 m 1
 115 179 l 1
 299 179 l 1
 299 0 l 1
 115 0 l 1
EndSplineSet
EndChar

StartChar: periodcentered
Encoding: 117 183 262
Width: 446
VWidth: 0
Flags: HW
LayerCount: 2
Fore
SplineSet
131 704 m 1
 131 883 l 1
 316 883 l 1
 316 704 l 1
 131 704 l 1
EndSplineSet
EndChar

StartChar: plus
Encoding: 11 43 263
Width: 649
VWidth: 0
Flags: HW
LayerCount: 2
Fore
SplineSet
274 384 m 1
 274 576 l 1
 82 576 l 1
 82 691 l 1
 274 691 l 1
 274 883 l 1
 395 883 l 1
 395 691 l 1
 587 691 l 1
 587 576 l 1
 395 576 l 1
 395 384 l 1
 274 384 l 1
EndSplineSet
EndChar

StartChar: plusminus
Encoding: 112 177 264
Width: 702
VWidth: 0
Flags: HW
LayerCount: 2
Fore
SplineSet
298 384 m 1
 298 576 l 1
 106 576 l 1
 106 691 l 1
 298 691 l 1
 298 883 l 1
 418 883 l 1
 418 691 l 1
 610 691 l 1
 610 576 l 1
 418 576 l 1
 418 384 l 1
 298 384 l 1
106 0 m 1
 106 115 l 1
 610 115 l 1
 610 0 l 1
 106 0 l 1
EndSplineSet
EndChar

StartChar: product
Encoding: 375 8719 265
Width: 1188
VWidth: 0
Flags: HW
LayerCount: 2
Fore
SplineSet
152 0 m 1
 152 1715 l 1
 1040 1715 l 1
 1040 0 l 1
 856 0 l 1
 856 1600 l 1
 336 1600 l 1
 336 0 l 1
 152 0 l 1
EndSplineSet
EndChar

StartChar: q
Encoding: 81 113 266
Width: 871
VWidth: 0
Flags: HW
PickledData: "(dp1
S'com.typemytype.robofont.layerData'
p2
(dp3
s."
LayerCount: 2
Fore
SplineSet
601 203 m 1
 601 993 l 1
 542 1064 466 1114 405 1114 c 0
 329 1114 256 1102 256 653 c 2
 256 558 l 2
 256 105 327 84 400 84 c 0
 471 84 539 134 601 203 c 1
601 -385 m 1
 601 113 l 1
 537 19 452 -27 370 -27 c 0
 248 -27 106 20 106 557 c 2
 106 652 l 2
 106 1170 248 1225 359 1225 c 0
 434 1225 531 1194 601 1085 c 1
 601 1198 l 1
 751 1198 l 1
 751 -385 l 1
 601 -385 l 1
EndSplineSet
EndChar

StartChar: question
Encoding: 31 63 267
Width: 868
VWidth: 0
Flags: HW
LayerCount: 2
Fore
SplineSet
275 1 m 1
 275 180 l 1
 459 180 l 1
 459 1 l 1
 275 1 l 1
300 452 m 1
 300 793 l 1
 653 997 692 1211 692 1317 c 0
 692 1540 568 1624 439 1624 c 0
 287 1624 169 1519 168 1321 c 2
 167 1179 l 1
 33 1179 l 1
 33 1325 l 2
 33 1600 237 1746 439 1746 c 0
 635 1746 829 1609 829 1319 c 0
 829 1072 690 895 434 736 c 1
 434 452 l 1
 300 452 l 1
EndSplineSet
EndChar

StartChar: quotedbl
Encoding: 2 34 269
Width: 694
VWidth: 0
Flags: HW
LayerCount: 2
Fore
SplineSet
475 1408 m 1
 425 1715 l 1
 593 1715 l 1
 567 1561 568 1560 542 1408 c 1
 475 1408 l 1
152 1408 m 1
 102 1715 l 1
 270 1715 l 1
 244 1561 245 1560 219 1408 c 1
 152 1408 l 1
EndSplineSet
EndChar

StartChar: quotedblbase
Encoding: 366 8222 270
Width: 725
VWidth: 0
Flags: HW
LayerCount: 2
Fore
SplineSet
497 -320 m 1
 446 -13 l 1
 614 -13 l 1
 588 -167 590 -168 564 -320 c 1
 497 -320 l 1
174 -320 m 1
 123 -13 l 1
 291 -13 l 1
 265 -167 267 -168 241 -320 c 1
 174 -320 l 1
EndSplineSet
EndChar

StartChar: quotedblleft
Encoding: 364 8220 271
Width: 698
VWidth: 0
Flags: HW
LayerCount: 2
Fore
SplineSet
590 1311 m 1
 405 1311 l 1
 405 1614 420 1731 541 1746 c 1
 568 1691 l 1
 467 1658 462 1528 462 1490 c 1
 590 1490 l 1
 590 1311 l 1
296 1311 m 1
 111 1311 l 1
 111 1614 126 1731 247 1746 c 1
 274 1691 l 1
 173 1658 168 1528 168 1490 c 1
 296 1490 l 1
 296 1311 l 1
EndSplineSet
EndChar

StartChar: quotedblright
Encoding: 365 8221 272
Width: 686
VWidth: 0
Flags: HW
LayerCount: 2
Fore
SplineSet
443 1286 m 1
 416 1341 l 1
 517 1374 522 1504 522 1542 c 1
 394 1542 l 1
 394 1721 l 1
 579 1721 l 1
 579 1418 564 1301 443 1286 c 1
149 1286 m 1
 122 1341 l 1
 223 1374 228 1504 228 1542 c 1
 100 1542 l 1
 100 1721 l 1
 285 1721 l 1
 285 1418 270 1301 149 1286 c 1
EndSplineSet
EndChar

StartChar: quoteleft
Encoding: 361 8216 273
Width: 403
VWidth: 0
Flags: HW
LayerCount: 2
Fore
SplineSet
296 1311 m 1
 111 1311 l 1
 111 1614 126 1731 247 1746 c 1
 274 1691 l 1
 173 1658 168 1528 168 1490 c 1
 296 1490 l 1
 296 1311 l 1
EndSplineSet
EndChar

StartChar: quoteright
Encoding: 362 8217 274
Width: 393
VWidth: 0
Flags: HW
LayerCount: 2
Fore
SplineSet
149 1286 m 1
 122 1341 l 1
 223 1374 228 1504 228 1542 c 1
 100 1542 l 1
 100 1721 l 1
 285 1721 l 1
 285 1418 270 1301 149 1286 c 1
EndSplineSet
EndChar

StartChar: quotesinglbase
Encoding: 363 8218 275
Width: 403
VWidth: 0
Flags: HW
LayerCount: 2
Fore
SplineSet
173 -321 m 1
 123 -14 l 1
 291 -14 l 1
 265 -168 267 -169 241 -321 c 1
 173 -321 l 1
EndSplineSet
EndChar

StartChar: quotesingle
Encoding: 7 39 276
Width: 373
VWidth: 0
Flags: HW
LayerCount: 2
Fore
SplineSet
153 1408 m 1
 102 1715 l 1
 271 1715 l 1
 244 1561 246 1560 220 1408 c 1
 153 1408 l 1
EndSplineSet
EndChar

StartChar: r
Encoding: 82 114 277
Width: 534
VWidth: 0
Flags: HW
PickledData: "(dp1
S'com.typemytype.robofont.layerData'
p2
(dp3
s."
LayerCount: 2
Fore
SplineSet
120 0 m 1
 120 1198 l 1
 270 1198 l 1
 270 1029 l 1
 310 1164 432 1215 522 1217 c 1
 522 1066 l 1
 522 1066 511 1070 499 1070 c 0
 384 1070 270 1035 270 894 c 2
 270 0 l 1
 120 0 l 1
EndSplineSet
EndChar

StartChar: registered
Encoding: 109 174 281
Width: 1378
VWidth: 0
Flags: HW
LayerCount: 2
Fore
SplineSet
696 67 m 0
 1055 67 1236 361 1236 657 c 0
 1236 953 1055 1247 696 1247 c 0
 337 1247 156 953 156 657 c 0
 156 361 337 67 696 67 c 0
696 -2 m 0
 278 -2 66 327 66 657 c 0
 66 987 278 1316 696 1316 c 0
 1114 1316 1326 987 1326 657 c 0
 1326 327 1114 -2 696 -2 c 0
576 695 m 1
 643 695 l 2
 753 695 851 691 851 843 c 0
 851 973 798 1032 682 1032 c 2
 576 1032 l 1
 576 695 l 1
504 241 m 1
 504 1083 l 1
 695 1083 l 2
 889 1083 931 961 931 843 c 0
 931 743 848 670 783 657 c 1
 783 657 797 629 937 244 c 1
 851 244 l 1
 718 646 l 1
 576 646 l 1
 576 241 l 1
 504 241 l 1
EndSplineSet
EndChar

StartChar: ring
Encoding: 344 730 282
Width: 637
VWidth: 0
Flags: HW
LayerCount: 2
Fore
SplineSet
317 1722 m 0
 470 1722 536 1610 536 1504 c 0
 536 1398 470 1286 317 1286 c 0
 164 1286 98 1398 98 1504 c 0
 98 1610 164 1722 317 1722 c 0
176 1504 m 0
 176 1438 210 1357 317 1357 c 0
 424 1357 458 1438 458 1504 c 0
 458 1570 424 1651 317 1651 c 0
 210 1651 176 1570 176 1504 c 0
EndSplineSet
EndChar

StartChar: s
Encoding: 83 115 283
Width: 749
VWidth: 0
Flags: HW
PickledData: "(dp1
S'com.typemytype.robofont.layerData'
p2
(dp3
s."
LayerCount: 2
Fore
SplineSet
57 300 m 1
 172 339 l 1
 206 235 286 81 407 81 c 0
 516 81 565 155 565 259 c 0
 565 355 460 466 360 554 c 2
 273 630 l 2
 166 724 73 814 73 939 c 0
 73 1123 195 1223 374 1223 c 0
 553 1223 643 1074 681 919 c 1
 548 878 l 1
 532 977 478 1115 367 1115 c 0
 276 1115 221 1046 221 952 c 0
 221 865 287 794 371 722 c 2
 466 640 l 2
 582 539 703 433 706 262 c 1
 706 80 578 -27 401 -27 c 0
 214 -27 100 126 57 300 c 1
EndSplineSet
EndChar

StartChar: section
Encoding: 102 167 288
Width: 834
VWidth: 0
Flags: HW
LayerCount: 2
Fore
SplineSet
392 722 m 2
 538 595 l 1
 596 621 622 681 622 758 c 0
 622 853 517 966 417 1053 c 2
 348 1113 l 1
 272 1101 228 1036 228 952 c 0
 228 864 308 795 392 722 c 2
78 300 m 1
 193 339 l 1
 227 235 307 81 428 81 c 0
 537 81 586 155 586 259 c 0
 586 355 481 466 381 554 c 2
 294 630 l 2
 187 724 80 814 80 939 c 0
 80 1073 145 1162 249 1201 c 1
 175 1271 116 1345 116 1438 c 0
 116 1622 238 1722 417 1722 c 0
 596 1722 686 1573 724 1418 c 1
 591 1377 l 1
 575 1476 521 1614 410 1614 c 0
 319 1614 264 1545 264 1451 c 0
 264 1364 344 1293 428 1221 c 2
 523 1139 l 2
 639 1038 760 921 763 761 c 1
 763 643 709 556 623 510 c 1
 682 442 725 364 727 262 c 1
 727 80 599 -27 422 -27 c 0
 235 -27 121 126 78 300 c 1
EndSplineSet
EndChar

StartChar: semicolon
Encoding: 27 59 289
Width: 422
VWidth: 0
Flags: HW
LayerCount: 2
Fore
SplineSet
173 0 m 1
 147 55 l 1
 238 88 253 209 253 256 c 1
 125 256 l 1
 125 435 l 1
 309 435 l 1
 304 194 314 15 173 0 c 1
125 813 m 1
 125 992 l 1
 309 992 l 1
 309 813 l 1
 125 813 l 1
EndSplineSet
EndChar

StartChar: seven
Encoding: 23 55 290
Width: 691
VWidth: 0
Flags: HW
PickledData: "(dp1
S'com.typemytype.robofont.layerData'
p2
(dp3
s."
LayerCount: 2
Fore
SplineSet
156 0 m 1
 484 1585 l 1
 1 1585 l 1
 1 1721 l 1
 647 1721 l 1
 647 1645 l 1
 501 892 461 753 314 0 c 1
 156 0 l 1
EndSplineSet
EndChar

StartChar: six
Encoding: 22 54 291
Width: 979
VWidth: 0
Flags: HW
PickledData: "(dp1
S'com.typemytype.robofont.layerData'
p2
(dp3
s."
LayerCount: 2
Fore
SplineSet
266 811 m 1
 266 501 l 2
 266 168 344 95 502 95 c 0
 674 95 758 187 758 481 c 0
 758 767 677 857 512 857 c 0
 424 857 310 840 266 811 c 1
114 490 m 2
 114 1256 l 2
 114 1539 214 1745 502 1745 c 0
 777 1745 872 1537 872 1323 c 2
 872 1297 l 1
 730 1297 l 1
 724 1571 641 1623 488 1623 c 0
 348 1623 266 1553 266 1259 c 2
 266 934 l 1
 327 963 408 979 512 979 c 0
 799 979 910 762 910 482 c 0
 910 194 796 -27 502 -27 c 0
 223 -27 114 164 114 490 c 2
EndSplineSet
EndChar

StartChar: slash
Encoding: 15 47 292
Width: 651
VWidth: 0
Flags: HW
LayerCount: 2
Fore
SplineSet
-29 0 m 1
 523 1721 l 1
 668 1721 l 1
 115 0 l 1
 -29 0 l 1
EndSplineSet
EndChar

StartChar: sterling
Encoding: 98 163 294
Width: 836
VWidth: 0
Flags: HW
LayerCount: 2
Fore
SplineSet
55 0 m 1
 55 65 l 1
 183 115 l 1
 183 768 l 1
 55 768 l 1
 55 877 l 1
 183 877 l 1
 183 1204 l 2
 183 1360 197 1745 508 1745 c 0
 792 1745 784 1434 784 1343 c 1
 664 1343 l 1
 664 1481 664 1626 502 1617 c 0
 336 1608 335 1416 335 1164 c 2
 335 883 l 1
 624 883 l 1
 624 768 l 1
 335 768 l 1
 335 115 l 1
 783 115 l 1
 783 0 l 1
 55 0 l 1
EndSplineSet
EndChar

StartChar: t
Encoding: 84 116 295
Width: 550
VWidth: 0
Flags: HW
PickledData: "(dp1
S'com.typemytype.robofont.layerData'
p2
(dp3
s."
LayerCount: 2
Fore
SplineSet
167 283 m 2
 167 1114 l 1
 4 1114 l 1
 4 1198 l 1
 167 1198 l 1
 167 1623 l 1
 317 1623 l 1
 317 1198 l 1
 509 1198 l 1
 509 1114 l 1
 317 1114 l 1
 317 290 l 2
 317 169 321 94 419 94 c 0
 448 94 478 96 507 102 c 1
 507 -1 l 1
 456 -14 415 -18 377 -18 c 0
 184 -18 167 130 167 283 c 2
EndSplineSet
EndChar

StartChar: thorn
Encoding: 188 254 298
Width: 874
VWidth: 0
Flags: HW
LayerCount: 2
Fore
SplineSet
615 545 m 2
 615 640 l 2
 615 1093 544 1114 471 1114 c 0
 400 1114 332 1064 270 995 c 1
 270 205 l 1
 329 134 405 84 466 84 c 0
 542 84 615 96 615 545 c 2
120 -385 m 1
 120 1721 l 1
 270 1721 l 1
 270 1085 l 1
 334 1179 419 1225 501 1225 c 0
 623 1225 765 1178 765 641 c 2
 765 546 l 2
 765 28 623 -27 512 -27 c 0
 437 -27 340 4 270 113 c 1
 270 -385 l 1
 120 -385 l 1
EndSplineSet
EndChar

StartChar: three
Encoding: 19 51 299
Width: 932
VWidth: 0
Flags: HW
PickledData: "(dp1
S'com.typemytype.robofont.layerData'
p2
(dp3
s."
LayerCount: 2
Fore
SplineSet
74 395 m 2
 74 421 l 1
 216 421 l 1
 222 147 309 95 468 95 c 0
 614 95 700 165 700 459 c 0
 700 676 641 832 444 848 c 1
 444 977 l 1
 637 985 700 1075 700 1317 c 0
 700 1547 619 1623 469 1623 c 0
 317 1623 227 1533 216 1292 c 1
 73 1292 l 1
 73 1317 l 2
 73 1536 174 1745 472 1745 c 0
 750 1745 852 1538 852 1316 c 0
 852 1083 746 948 617 910 c 1
 719 869 852 770 852 462 c 0
 852 179 749 -27 454 -27 c 0
 172 -27 74 181 74 395 c 2
EndSplineSet
EndChar

StartChar: threequarters
Encoding: 124 190 300
Width: 1890
VWidth: 0
Flags: HW
LayerCount: 2
Fore
SplineSet
1418 378 m 1
 1648 378 l 1
 1647 1016 l 1
 1418 378 l 1
1273 276 m 1
 1273 371 l 1
 1574 1132 l 1
 1784 1132 l 1
 1784 378 l 1
 1918 378 l 1
 1918 276 l 1
 1784 276 l 1
 1784 -1 l 1
 1648 -1 l 1
 1648 276 l 1
 1273 276 l 1
645 0 m 1
 1197 1721 l 1
 1342 1721 l 1
 789 0 l 1
 645 0 l 1
59 955 m 1
 189 955 l 1
 189 819 209 693 338 693 c 0
 442 693 480 772 480 914 c 0
 480 991 417 1126 319 1146 c 1
 319 1230 l 1
 429 1261 480 1349 480 1425 c 0
 480 1548 445 1638 348 1638 c 0
 210 1638 189 1510 189 1374 c 1
 59 1374 l 1
 59 1602 146 1744 347 1744 c 0
 527 1744 610 1601 610 1436 c 0
 610 1337 543 1231 452 1188 c 1
 542 1134 610 1003 610 913 c 0
 610 722 524 587 337 587 c 0
 143 587 59 729 59 955 c 1
EndSplineSet
EndChar

StartChar: tilde
Encoding: 346 732 301
Width: 754
VWidth: 0
Flags: HW
LayerCount: 2
Fore
SplineSet
217 1376 m 1
 102 1376 l 1
 104 1420 119 1563 289 1563 c 0
 344 1563 424 1487 474 1487 c 0
 510 1487 533 1501 540 1554 c 1
 656 1554 l 1
 653 1544 656 1364 472 1364 c 0
 401 1364 332 1442 279 1442 c 0
 243 1442 224 1429 217 1376 c 1
EndSplineSet
EndChar

StartChar: trademark
Encoding: 374 8482 302
Width: 1399
VWidth: 0
Flags: HW
LayerCount: 2
Fore
SplineSet
646 686 m 1
 646 1441 l 1
 809 1441 l 1
 957 902 l 1
 1120 1441 l 1
 1270 1441 l 1
 1270 686 l 1
 1181 686 l 1
 1181 1410 l 1
 980 686 l 1
 933 686 l 1
 733 1400 l 1
 733 686 l 1
 646 686 l 1
220 686 m 1
 220 1364 l 1
 57 1364 l 1
 57 1441 l 1
 483 1441 l 1
 483 1364 l 1
 319 1364 l 1
 319 686 l 1
 220 686 l 1
EndSplineSet
EndChar

StartChar: tt
Encoding: 393 -1 303
Width: 1082
VWidth: 0
Flags: HW
LayerCount: 2
Fore
SplineSet
179 283 m 2
 179 1114 l 1
 16 1114 l 1
 16 1198 l 1
 179 1198 l 1
 179 1623 l 1
 329 1623 l 1
 329 1198 l 1
 667 1198 l 1
 667 1623 l 1
 817 1623 l 1
 817 1198 l 1
 1009 1198 l 1
 1009 1114 l 1
 817 1114 l 1
 817 290 l 2
 817 169 821 94 919 94 c 0
 948 94 978 96 1007 102 c 1
 1007 -1 l 1
 956 -14 915 -18 877 -18 c 0
 684 -18 667 130 667 283 c 2
 667 1114 l 1
 329 1114 l 1
 329 290 l 2
 329 169 333 94 431 94 c 0
 460 94 490 96 519 102 c 1
 519 -1 l 1
 468 -14 427 -18 389 -18 c 0
 196 -18 179 130 179 283 c 2
EndSplineSet
EndChar

StartChar: two
Encoding: 18 50 304
Width: 931
VWidth: 0
Flags: HW
PickledData: "(dp1
S'com.typemytype.robofont.layerData'
p2
(dp3
s."
LayerCount: 2
Fore
SplineSet
63 0 m 1
 63 128 l 1
 525 825 l 2
 605 946 717 1119 717 1272 c 0
 717 1474 656 1623 489 1623 c 0
 253 1623 218 1426 218 1216 c 1
 66 1216 l 1
 66 1239 l 1
 72 1551 196 1745 487 1745 c 0
 747 1745 869 1558 869 1273 c 0
 869 1118 760 916 675 793 c 1
 242 122 l 1
 848 122 l 1
 848 0 l 1
 63 0 l 1
EndSplineSet
EndChar

StartChar: u
Encoding: 85 117 305
Width: 892
VWidth: 0
Flags: HW
PickledData: "(dp1
S'com.typemytype.robofont.layerData'
p2
(dp3
s."
LayerCount: 2
Fore
SplineSet
112 257 m 2
 112 1198 l 1
 264 1198 l 1
 264 254 l 2
 264 127 322 84 391 84 c 0
 453 84 530 130 590 205 c 1
 590 1198 l 1
 740 1198 l 1
 740 0 l 1
 590 0 l 1
 590 113 l 1
 523 15 427 -27 336 -27 c 0
 229 -27 112 65 112 257 c 2
EndSplineSet
EndChar

StartChar: underscore
Encoding: 63 95 313
Width: 913
VWidth: 0
Flags: HW
LayerCount: 2
Fore
SplineSet
115 0 m 1
 115 115 l 1
 811 115 l 1
 811 0 l 1
 115 0 l 1
EndSplineSet
EndChar

StartChar: uni00AD
Encoding: 108 173 314
Width: 659
VWidth: 0
Flags: HW
LayerCount: 2
Fore
SplineSet
117 448 m 1
 117 563 l 1
 558 563 l 1
 558 448 l 1
 117 448 l 1
EndSplineSet
EndChar

StartChar: uni00B2
Encoding: 113 178 315
Width: 764
VWidth: 0
Flags: HW
LayerCount: 2
Fore
SplineSet
100 586 m 1
 100 686 l 1
 405 1145 l 1
 451 1219 522 1340 522 1423 c 0
 522 1545 488 1635 398 1635 c 0
 263 1635 244 1507 244 1371 c 1
 102 1371 l 1
 102 1600 190 1743 397 1743 c 0
 580 1743 664 1616 664 1424 c 0
 664 1326 588 1190 534 1106 c 2
 269 697 l 1
 650 697 l 1
 650 586 l 1
 100 586 l 1
EndSplineSet
EndChar

StartChar: uni00B3
Encoding: 114 179 316
Width: 770
VWidth: 0
Flags: HW
LayerCount: 2
Fore
SplineSet
104 955 m 1
 234 955 l 1
 234 819 254 693 383 693 c 0
 487 693 525 772 525 914 c 0
 525 991 462 1126 364 1146 c 1
 364 1230 l 1
 474 1261 525 1349 525 1425 c 0
 525 1548 490 1638 393 1638 c 0
 255 1638 234 1510 234 1374 c 1
 104 1374 l 1
 104 1602 191 1744 392 1744 c 0
 572 1744 655 1601 655 1436 c 0
 655 1337 588 1231 497 1188 c 1
 587 1134 655 1003 655 913 c 0
 655 722 569 587 382 587 c 0
 188 587 104 729 104 955 c 1
EndSplineSet
EndChar

StartChar: uni00B9
Encoding: 119 185 317
Width: 522
VWidth: 0
Flags: HW
LayerCount: 2
Fore
SplineSet
243 588 m 1
 243 1497 l 1
 184 1456 96 1418 51 1408 c 1
 51 1533 l 1
 112 1555 230 1618 292 1721 c 1
 379 1721 l 1
 379 588 l 1
 243 588 l 1
EndSplineSet
EndChar

StartChar: uni0237
Encoding: 339 567 355
Width: 410
VWidth: 0
Flags: HW
LayerCount: 2
Fore
SplineSet
-72 -312 m 1
 -72 -204 l 1
 -49 -205 -26 -206 -16 -206 c 0
 120 -206 120 -80 120 -18 c 2
 120 1198 l 1
 270 1198 l 1
 270 -46 l 2
 270 -242 172 -320 9 -320 c 0
 -4 -320 -41 -318 -72 -312 c 1
EndSplineSet
EndChar

StartChar: uni030F
Encoding: 348 783 356
Width: 666
VWidth: 0
Flags: HW
LayerCount: 2
Fore
SplineSet
275 1408 m 1
 68 1721 l 1
 228 1721 l 1
 334 1408 l 1
 275 1408 l 1
506 1408 m 1
 299 1721 l 1
 459 1721 l 1
 565 1408 l 1
 506 1408 l 1
EndSplineSet
EndChar

StartChar: uni0311
Encoding: 349 785 357
Width: 737
VWidth: 0
Flags: HW
LayerCount: 2
Fore
SplineSet
201 1313 m 1
 90 1313 l 1
 99 1530 256 1581 366 1581 c 0
 476 1581 633 1530 642 1313 c 1
 531 1313 l 1
 511 1451 439 1472 366 1472 c 0
 293 1472 221 1451 201 1313 c 1
EndSplineSet
EndChar

StartChar: uni0326
Encoding: 350 806 358
Width: 502
VWidth: 0
Flags: HW
LayerCount: 2
Fore
SplineSet
205 -522 m 1
 178 -467 l 1
 270 -434 284 -313 284 -266 c 1
 156 -266 l 1
 156 -87 l 1
 341 -87 l 1
 341 -310 346 -496 216 -520 c 0
 212 -521 209 -522 205 -522 c 1
EndSplineSet
EndChar

StartChar: uni2074
Encoding: 372 8308 359
Width: 737
VWidth: 0
Flags: HW
LayerCount: 2
Fore
SplineSet
184 968 m 1
 414 968 l 1
 413 1606 l 1
 184 968 l 1
39 866 m 1
 39 961 l 1
 340 1722 l 1
 550 1722 l 1
 550 968 l 1
 684 968 l 1
 684 866 l 1
 550 866 l 1
 550 589 l 1
 414 589 l 1
 414 866 l 1
 39 866 l 1
EndSplineSet
EndChar

StartChar: uniFB01
Encoding: 377 64257 360
Width: 942
VWidth: 0
Flags: HW
LayerCount: 2
Fore
SplineSet
669 1472 m 1
 669 1651 l 1
 819 1651 l 1
 819 1472 l 1
 669 1472 l 1
177 0 m 1
 177 1114 l 1
 10 1114 l 1
 10 1198 l 1
 177 1198 l 1
 177 1327 l 2
 177 1425 161 1652 394 1652 c 0
 435 1652 479 1648 516 1639 c 1
 516 1530 l 1
 504 1533 455 1536 442 1536 c 0
 322 1536 327 1449 327 1378 c 2
 327 1198 l 1
 819 1198 l 1
 819 0 l 1
 669 0 l 1
 669 1114 l 1
 327 1114 l 1
 327 0 l 1
 177 0 l 1
EndSplineSet
Ligature2: "'liga' Standard Ligatures in Latin lookup 0-1" f i
EndChar

StartChar: uniFB02
Encoding: 378 64258 361
Width: 983
VWidth: 0
Flags: HW
LayerCount: 2
Fore
SplineSet
177 0 m 1
 177 1114 l 1
 10 1114 l 1
 10 1198 l 1
 177 1198 l 1
 177 1367 l 2
 177 1607 302 1653 526 1653 c 0
 719 1653 837 1603 837 1603 c 1
 837 0 l 1
 687 0 l 1
 687 1532 l 1
 687 1532 558 1542 515 1542 c 0
 382 1542 327 1516 327 1378 c 2
 327 1198 l 1
 519 1198 l 1
 519 1114 l 1
 327 1114 l 1
 327 0 l 1
 177 0 l 1
EndSplineSet
Ligature2: "'liga' Standard Ligatures in Latin lookup 0-1" f l
EndChar

StartChar: v
Encoding: 86 118 365
Width: 747
VWidth: 0
Flags: HW
PickledData: "(dp1
S'com.typemytype.robofont.layerData'
p2
(dp3
s."
LayerCount: 2
Fore
SplineSet
297 0 m 1
 25 1198 l 1
 171 1198 l 1
 385 136 l 1
 579 1198 l 1
 722 1198 l 1
 472 0 l 1
 297 0 l 1
EndSplineSet
EndChar

StartChar: w
Encoding: 87 119 366
Width: 1161
VWidth: 0
Flags: HW
PickledData: "(dp1
S'com.typemytype.robofont.layerData'
p2
(dp3
s."
LayerCount: 2
Fore
SplineSet
240 0 m 1
 42 1198 l 1
 173 1198 l 1
 331 176 l 1
 502 1198 l 1
 662 1198 l 1
 846 176 l 1
 990 1198 l 1
 1119 1198 l 1
 923 0 l 1
 778 0 l 1
 585 988 l 1
 399 0 l 1
 240 0 l 1
EndSplineSet
EndChar

StartChar: x
Encoding: 88 120 367
Width: 783
VWidth: 0
Flags: HW
PickledData: "(dp1
S'com.typemytype.robofont.layerData'
p2
(dp3
s."
LayerCount: 2
Fore
SplineSet
39 0 m 1
 297 626 l 1
 41 1198 l 1
 196 1198 l 1
 392 699 l 1
 588 1198 l 1
 743 1198 l 1
 486 626 l 1
 744 0 l 1
 598 0 l 1
 392 534 l 1
 186 0 l 1
 39 0 l 1
EndSplineSet
EndChar

StartChar: y
Encoding: 89 121 368
Width: 777
VWidth: 0
Flags: HW
PickledData: "(dp1
S'com.typemytype.robofont.layerData'
p2
(dp3
s."
LayerCount: 2
Fore
SplineSet
77 -299 m 1
 77 -176 l 1
 240 -165 308 -122 308 -46 c 0
 308 -12 305 46 297 96 c 1
 37 1198 l 1
 189 1198 l 1
 397 197 l 1
 601 1198 l 1
 753 1198 l 1
 453 -83 l 1
 411 -245 286 -293 80 -299 c 1
 77 -299 l 1
EndSplineSet
EndChar

StartChar: yen
Encoding: 100 165 371
Width: 909
VWidth: 0
Flags: HW
LayerCount: 2
Fore
SplineSet
386 0 m 1
 386 226 l 1
 174 226 l 1
 174 317 l 1
 386 317 l 1
 386 523 l 1
 174 523 l 1
 174 612 l 1
 361 612 l 1
 10 1721 l 1
 179 1721 l 1
 461 689 l 1
 583 1135 619 1275 743 1721 c 1
 902 1721 l 1
 562 612 l 1
 743 612 l 1
 743 523 l 1
 538 523 l 1
 538 317 l 1
 743 317 l 1
 743 226 l 1
 538 226 l 1
 538 0 l 1
 386 0 l 1
EndSplineSet
EndChar

StartChar: z
Encoding: 90 122 372
Width: 695
VWidth: 0
Flags: HW
PickledData: "(dp1
S'com.typemytype.robofont.layerData'
p2
(dp3
s."
LayerCount: 2
Fore
SplineSet
47 0 m 1
 47 144 l 1
 519 1084 l 1
 111 1084 l 1
 111 1198 l 1
 660 1198 l 1
 660 1055 l 1
 199 115 l 1
 654 115 l 1
 654 0 l 1
 47 0 l 1
EndSplineSet
EndChar

StartChar: zdotaccent
Encoding: 295 380 375
Width: 731
VWidth: 0
Flags: HW
LayerCount: 2
Fore
SplineSet
343 1327 m 1
 343 1506 l 1
 527 1506 l 1
 527 1327 l 1
 343 1327 l 1
EndSplineSet
Refer: 372 122 N 1 0 0 1 0 0 2
EndChar

StartChar: zero
Encoding: 16 48 376
Width: 1047
VWidth: 0
Flags: HW
LayerCount: 2
Fore
SplineSet
117 499 m 2
 117 1220 l 2
 117 1511 216 1745 526 1745 c 0
 836 1745 935 1511 935 1220 c 2
 935 499 l 2
 935 210 844 -27 526 -27 c 0
 208 -27 117 210 117 499 c 2
783 465 m 2
 783 1254 l 2
 783 1458 726 1623 526 1623 c 0
 326 1623 269 1458 269 1254 c 2
 269 465 l 2
 269 261 326 95 526 95 c 0
 726 95 783 261 783 465 c 2
EndSplineSet
EndChar

